<svg height="1080" width="760.8500366210938" viewBox="-0.32 0.01 760.85 1080" version="1.1" id="d300ea35-4ca3-4e68-aaba-7e2445e819e3" xmlns="http://www.w3.org/2000/svg"><defs></defs><path style="fill:#191a21" d="M182.12,314.15c16.12-8.52,28.42-20.05,36.98-34.59,8.52-14.52,12.76-30.31,12.76-47.37,0-10.1-1.5-19.82-4.47-29.15-3.01-9.31-7.13-17.84-12.34-25.59-5.21-7.73-11.3-13.98-18.24-18.7,6.32-4.74,11.45-10.43,15.39-17.06,3.97-6.63,6.83-13.57,8.56-20.86,1.74-7.25,2.58-14.67,2.58-22.27,0-14.85-3.32-29.29-9.95-43.34-6.63-14.06-16.58-25.99-29.85-35.79-13.27-9.78-29.23-15.79-47.86-18.01-5.05-.62-11.07-1.02-18.01-1.18-6.94-.15-13.92-.23-20.86-.23H-.32v326.96h126.06c21.48,0,40.26-4.26,56.38-12.8ZM80.24,75.82h37.45c6.32,0,12.07,2.37,17.32,7.1,5.21,4.74,7.79,10.76,7.79,18.01s-2.58,13.21-7.79,17.78c-5.24,4.59-10.99,6.86-17.32,6.86h-37.45v-49.75ZM80.24,201.38h45.51c4.43,0,8.52.96,12.3,2.85,3.82,1.89,6.98,4.74,9.49,8.52,2.55,3.8,3.78,8.37,3.78,13.75s-1.23,9.87-3.78,13.5c-2.51,3.64-5.67,6.4-9.49,8.29-3.78,1.91-7.87,2.85-12.3,2.85h-45.51v-49.77ZM539.7,852.37c-19.59,33.64-29.38,75.74-29.38,126.26v23.21h-202.8c-13.26,0-24.87-1.25-34.81-3.8-9.95-2.53-18.74-6.46-26.29-11.84-6.98-4.74-13.22-10.74-18.74-18-5.51-7.27-9.79-15.4-12.8-24.4-3.01-9-4.47-18.06-4.47-27.24s1.47-18.24,4.47-27.24c3.01-9,7.29-17.12,12.8-24.4,5.51-7.25,11.76-13.26,18.74-17.98,7.56-5.38,16.35-9.31,26.29-11.85,9.95-2.53,21.55-3.78,34.81-3.78h101.97v-78.17h-101.97c-23.05,0-42.02,1.89-56.87,5.67-23.05,5.69-43.76,16.19-62.07,31.52-18.31,15.32-32.65,33.95-43.1,55.9-10.41,21.96-15.61,45.4-15.61,70.34s5.21,47.94,15.61,69.88c10.45,21.96,24.79,40.6,43.1,55.9,18.31,15.32,38.86,25.98,61.61,31.98,13.15,3.3,29.31,5.15,48.42,5.58v.1h292.24v-47.38h71.09v47.38h80.54v-326.87c-46.15,0-86.55,8.13-121.29,24.38-34.74,16.27-61.91,41.21-81.5,74.85ZM661.95,847.39v107.06h-70.13c2.51-26.83,9.48-49.33,20.86-67.51,11.37-18.16,27.76-31.34,49.27-39.55ZM366.09,329.27h-80.23V2.79h80.23v326.47ZM2.86,753.33h80.23v326.47H2.86v-326.47ZM504.24,319.66c25.94,15.08,54.45,22.64,85.57,22.64s59.75-7.56,85.84-22.64c26.09-15.08,46.74-35.67,62.01-61.76,15.23-26.09,22.87-54.7,22.87-85.82s-7.64-59.19-22.87-85.11c-15.27-25.94-35.92-46.45-62.01-61.53-26.09-15.1-54.72-22.64-85.84-22.64s-59.63,7.54-85.57,22.64c-25.94,15.08-46.43,35.59-61.51,61.53-15.12,25.92-22.64,54.3-22.64,85.11s7.52,59.73,22.64,85.82c15.08,26.09,35.57,46.68,61.51,61.76ZM512.26,127.27c8.02-14.14,18.92-25.38,32.77-33.71,13.81-8.33,28.93-12.49,45.28-12.49s30.93,4.24,44.78,12.72c13.81,8.48,24.83,19.72,33,33.71,8.17,13.99,12.28,29.16,12.28,45.51s-4.11,31.52-12.28,45.49c-8.17,14.01-19.19,25.08-33,33.25-13.85,8.17-28.78,12.26-44.78,12.26s-31.47-4.09-45.28-12.26c-13.85-8.17-24.75-19.24-32.77-33.25-8.02-13.97-12.01-29.14-12.01-45.49s3.99-31.6,12.01-45.74ZM83.09,379.42v247.77h80.23v77.87H2.86v-325.64h80.23ZM171.53,456.58c-15.13,25.94-22.66,54.35-22.66,85.19s7.53,59.78,22.66,85.9c15.09,26.12,35.6,46.72,61.57,61.82,25.96,15.09,54.5,22.66,85.65,22.66s59.8-7.57,85.92-22.66c26.12-15.09,46.78-35.7,62.07-61.82,15.25-26.12,22.89-54.75,22.89-85.9s-7.64-59.24-22.89-85.19c-15.29-25.96-35.95-46.49-62.07-61.59-26.12-15.11-54.77-22.66-85.92-22.66s-59.68,7.55-85.65,22.66c-25.96,15.09-46.47,35.62-61.57,61.59ZM241.12,496.93c8.03-14.15,18.94-25.41,32.8-33.74,13.83-8.33,28.96-12.5,45.32-12.5s30.96,4.24,44.82,12.73c13.83,8.49,24.85,19.74,33.03,33.74,8.18,14,12.29,29.19,12.29,45.55s-4.11,31.55-12.29,45.53c-8.18,14.02-19.2,25.1-33.03,33.28-13.87,8.18-28.81,12.27-44.82,12.27s-31.49-4.09-45.32-12.27c-13.87-8.18-24.77-19.26-32.8-33.28-8.03-13.98-12.02-29.17-12.02-45.53s3.99-31.63,12.02-45.78ZM666.43,539.87h80.23v165.19h-80.23c-31.76,0-60.49-7.24-86.11-21.7-25.66-14.48-45.71-34.14-60.19-58.99-14.48-24.87-21.7-52.23-21.7-82.13,0-26.73,5.72-51.45,17.21-74.09,11.48-22.66,27.15-41.46,46.97-56.4,19.82-14.94,42.02-24.62,66.56-29.02,5.65-1.27,13.25-2.13,22.85-2.61,9.6-.46,25.27-.69,46.97-.69h22.78v77.87h-22.78c-21.39,0-36.49.38-45.32,1.17-8.79.79-15.86,2.29-21.2,4.49-10.1,3.76-19.2,9.66-27.38,17.69-8.18,8.03-14.63,17.46-19.36,28.33-4.72,10.85-7.07,22.1-7.07,33.74,0,14.79,3.69,28.63,11.06,41.54,7.41,12.91,17.71,23.27,30.92,31.15,13.21,7.85,28.15,11.79,44.86,11.79h.92v-87.32Z"></path></svg>