<svg viewBox="0 0 50.01 55.64" xmlns="http://www.w3.org/2000/svg" data-name="Layer 2" id="Layer_2">
  <defs>
    <style>
      .cls-1 {
        fill: none;
      }

      .cls-2 {
        fill: #1b1a21;
      }
    </style>
  </defs>
  <g id="ARTWORK">
    <g>
      <path d="M25.9,17.68s.03.48,0,1.14c.08,1.52.5,4.24,2.31,6.18,1.4,1.51,3.41,2.29,5.96,2.32.06,0,.12,0,.18,0h7.12c-3.76-1.04-6.94-2.85-9.5-5.46-3.33-3.41-5.12-7.64-6.07-11.45v7.28Z" class="cls-1"></path>
      <path d="M29.11,28.64l-.11.03c.09-.04.16-.07.24-.11.13-.07.25-.15.38-.22.93-.71-.6-1.36-.6-1.36l.08.02c-.6-.37-1.15-.8-1.63-1.32-.6-.65-1.06-1.37-1.42-2.1-.63-1.26-1.31.02-1.31.02v-.03c-.35.74-.81,1.46-1.42,2.11-.66.71-1.43,1.27-2.3,1.69-.26.24-.4.57,0,.91.87.43,1.64.99,2.3,1.69.46.5.84,1.04,1.15,1.6v-.02s.82,1.57,1.66.35c.34-.67.78-1.33,1.34-1.93.49-.52,1.04-.96,1.64-1.33Z" class="cls-1"></path>
      <path d="M16.45,27.31c.06,0,.12,0,.18,0,2.55-.04,4.56-.81,5.96-2.32,1.81-1.95,2.22-4.68,2.31-6.18-.03-.67,0-1.12,0-1.18v-4.16s0-.03,0-.04v-2.99c-.92,3.64-2.61,7.68-5.71,11.01-2.61,2.81-5.9,4.76-9.83,5.85h7.09Z" class="cls-1"></path>
      <path d="M24.9,42.2s0-.03,0-.04v-4.2s-.03-.48,0-1.14c-.08-1.52-.5-4.24-2.31-6.18-1.4-1.51-3.41-2.29-5.96-2.32-.06,0-.12,0-.18,0h-6.15s-.04-.01-.07-.01h-.91c3.95,1.09,7.26,3.04,9.87,5.86,3.1,3.34,4.79,7.37,5.71,11.01v-2.99Z" class="cls-1"></path>
      <path d="M40.56,28.31s-.04.01-.07.01h-6.15c-.06,0-.12,0-.18,0-2.55.04-4.56.81-5.96,2.32-1.81,1.95-2.22,4.68-2.31,6.18.03.67,0,1.12,0,1.18v7.16c.92-3.63,2.61-7.65,5.7-10.98,2.62-2.82,5.93-4.78,9.87-5.86h-.91Z" class="cls-1"></path>
      <path d="M50.01,27.8c0-.28-.22-.5-.5-.5-.17,0-.32.02-.49.02-6.91-.09-12.42-2.16-16.34-6.17-5.32-5.44-6.54-13.12-6.78-17.44.1-1.86.02-3.09,0-3.25-.01-.17-.11-.29-.25-.37-.03-.02-.05-.03-.08-.04-.02,0-.04-.01-.06-.02-.03,0-.06-.02-.1-.03,0,0-.02,0-.03,0,0,0-.02,0-.03,0-.02,0-.04.01-.06.02-.04,0-.08.02-.11.03-.02,0-.03.02-.04.02-.14.08-.26.22-.27.39,0,0-.02.28-.03.78-.01.54,0,1.32.04,2.27-.22,4.16-1.35,11.8-6.44,17.28-3.95,4.25-9.57,6.43-16.69,6.53-.16,0-.32-.02-.48-.02h-.78c-.28,0-.5.22-.5.5s.22.5.5.5h.6c.06.02.12.04.18.04.16,0,.32-.02.48-.02,7.12.1,12.74,2.28,16.69,6.53,5.04,5.43,6.2,12.99,6.43,17.17-.09,1.81-.01,3,0,3.16.02.25.22.44.46.46,0,0,.01,0,.02,0,0,0,0,0,.01,0,0,0,0,0,0,0,0,0,0,0,.01,0,0,0,0,0,.01,0,0,0,0,0,0,0,0,0,0,0,.01,0,0,0,.01,0,.02,0,.24-.02.44-.21.46-.46.01-.15.09-1.35,0-3.16.23-4.18,1.39-11.74,6.43-17.17,3.95-4.25,9.56-6.43,16.68-6.53.17,0,.32.02.49.02.28,0,.5-.22.5-.5,0,0,0-.01,0-.02,0,0,0-.01,0-.02ZM41.46,27.31h-7.12c-.06,0-.12,0-.18,0-2.55-.04-4.56-.81-5.96-2.32-1.81-1.94-2.22-4.66-2.31-6.18.03-.66,0-1.09,0-1.14v-7.28c.95,3.81,2.73,8.04,6.07,11.45,2.55,2.61,5.74,4.43,9.5,5.46ZM26.13,31.89c-.83,1.22-1.66-.35-1.66-.35v.02c-.31-.56-.68-1.1-1.15-1.6-.66-.71-1.43-1.27-2.3-1.69-.4-.34-.26-.66,0-.91.87-.43,1.64-.99,2.3-1.69.61-.65,1.07-1.38,1.42-2.11v.03s.67-1.29,1.3-.02c.36.73.82,1.45,1.42,2.1.48.52,1.03.95,1.63,1.32l-.08-.02s1.53.66.6,1.36c-.13.07-.25.15-.38.22-.08.04-.15.07-.24.11l.11-.03c-.6.37-1.16.81-1.64,1.33-.56.6-.99,1.25-1.34,1.93ZM19.19,21.47c3.1-3.34,4.79-7.38,5.71-11.01v2.99s0,.03,0,.04v4.16c0,.06-.03.51,0,1.18-.08,1.5-.5,4.23-2.31,6.18-1.4,1.51-3.41,2.29-5.96,2.32-.06,0-.12,0-.18,0h-7.09c3.93-1.09,7.22-3.04,9.83-5.85ZM9.32,28.31h.91s.04.01.07.01h6.15c.06,0,.12,0,.18,0,2.55.04,4.56.81,5.96,2.32,1.81,1.94,2.22,4.66,2.31,6.18-.03.66,0,1.09,0,1.14v4.2s0,.03,0,.04v2.99c-.92-3.64-2.61-7.67-5.71-11.01-2.62-2.82-5.93-4.78-9.87-5.86ZM31.6,34.18c-3.09,3.33-4.78,7.35-5.7,10.98v-7.16c0-.06.03-.5,0-1.18.08-1.5.5-4.24,2.31-6.18,1.4-1.51,3.41-2.29,5.96-2.32.06,0,.12,0,.18,0h6.15s.04-.01.07-.01h.91c-3.95,1.09-7.26,3.04-9.87,5.86Z" class="cls-2"></path>
    </g>
  </g>
</svg>