<?xml version="1.0" encoding="utf-8" ?>
<svg xmlns="http://www.w3.org/2000/svg" xmlns:xlink="http://www.w3.org/1999/xlink" width="43" height="47">
	<path fill="#1b1a21" d="M26.428356 4.6794505C25.660603 3.9457448 24.048677 2.7818694 23.03878 2.5008566C22.361219 2.3123217 22.043545 2.2997925 21.889521 3.0745163L21.875895 43.496033C21.871304 43.865646 21.962978 44.393814 22.400023 44.461678C23.349051 44.609196 24.767853 43.692326 25.509985 43.115234C31.203264 38.687794 32.822002 27.137192 32.251965 20.367533C31.832396 15.384778 30.116503 8.2044878 26.428356 4.6794505L26.428356 4.6794505ZM20.532772 44.292831L20.70516 43.496033L20.705309 3.0600479C20.534845 1.446761 17.9382 3.31108 17.302551 3.8244798C10.655061 9.1945953 9.6202831 22.167862 10.965776 30.022194C11.753226 34.617886 13.908089 41.223324 18.133987 43.684868C18.884117 44.12175 19.641651 44.446316 20.532772 44.292831L20.532772 44.292831ZM24.400415 45.501904C33.229576 44.594727 39.289108 37.788525 40.947979 29.27939C42.721336 20.182726 40.277531 9.0041208 32.00034 3.9153168C30.096952 2.7451766 27.161898 1.6272415 24.924692 1.4947897C24.6122 1.4762942 24.306076 1.3865014 24.399824 1.7987726C24.637672 1.7816195 24.838942 1.8581372 25.04332 1.9723918C30.607012 5.0806837 32.931301 14.282952 33.436768 20.218374C34.045609 27.366894 32.307056 39.260708 26.398735 44.01033C25.746946 44.534321 25.009554 44.934956 24.400415 45.501904L24.400415 45.501904ZM18.327703 1.5023968C10.996581 2.0214646 5.1286912 7.4254389 2.7743378 14.251033C-1.2879105 26.028057 2.8987422 42.845856 16.66172 45.316948C17.068701 45.390034 18.04957 45.64957 18.180344 45.206123C14.882589 43.494991 12.859093 40.137157 11.54944 36.74308C7.8411517 27.132866 8.1589756 10.046732 16.478373 2.8452613L18.327703 1.5023968ZM19.775238 0.0501999C30.238241 -0.56119645 38.234188 4.4194689 41.393021 14.591857C45.337826 27.295597 40.610458 43.805237 26.209019 46.504093C15.168424 48.573055 5.5830636 44.164261 1.7373382 33.350197C-3.3990831 18.906834 2.9239194 1.0347881 19.775238 0.0501999L19.775238 0.0501999Z" fill-rule="evenodd"/>
</svg>
