<svg height="55" width="54" xmlns:xlink="http://www.w3.org/1999/xlink" xmlns="http://www.w3.org/2000/svg">
	<path fill-rule="evenodd" d="M16.698355 39.322842C16.415705 39.386372 16.241613 39.563934 16.028275 39.730793C14.919273 40.59898 13.153874 42.484188 12.157394 43.567593C11.760962 43.998566 10.811291 44.969185 10.547903 45.362858C8.7524385 48.045765 12.894628 49.201267 14.770926 49.729496C22.095011 51.791553 33.586128 51.69965 40.834961 49.329933C42.72998 48.710335 45.115051 47.487556 43.39484 45.269348C42.017052 43.492462 39.63036 41.734852 38.18092 39.90871C36.724457 38.764095 36.606354 39.427952 35.337845 39.955112C31.656359 41.485012 22.794077 41.514103 19.094229 40.090382C18.273279 39.774513 17.656128 39.107445 16.698355 39.322842M24.092293 15.602306C20.539709 15.82377 17.593477 16.432661 16.123692 20.016949C14.992367 22.776234 14.908292 29.237942 15.328848 32.223152C15.72456 35.031868 17.485277 38.195713 20.391542 38.982704C23.046663 39.701702 30.092957 39.754349 32.821529 39.245213C36.933292 38.47821 38.672768 34.842884 38.90501 30.998945C39.083603 28.041039 39.114567 22.215881 38.028793 19.537081C37.667107 18.6448 37.031952 17.765549 36.254932 17.190742C33.704411 15.303749 27.229359 15.406718 24.092293 15.602306M7.695828 10.593049C5.9547329 10.984403 4.8819189 15.55341 4.5584006 17.118647C3.2463233 23.465965 3.1130993 36.688477 5.998301 42.542721C7.5872684 45.766705 9.0583143 44.770744 11.085481 42.683346C12.13165 41.606186 13.356051 40.432659 14.326067 39.292683C16.226851 37.058594 14.961041 36.556419 14.321385 34.292347C13.296821 30.665588 13.490715 24.024353 14.501238 20.37154C15.081123 18.275753 16.145115 17.842819 14.506099 15.90693C13.530323 14.754284 10.797969 11.959129 9.6421595 11.091655C9.0556135 10.651404 8.4417028 10.425301 7.695828 10.593049M45.693138 10.409418C45.260521 10.474376 44.813137 10.737777 44.472878 10.999037C43.16692 12.00178 40.993027 14.421285 39.882587 15.728475C38.306221 17.583879 38.989807 17.510357 39.527561 19.479082C40.693634 23.747032 40.923897 31.004833 39.569149 35.226566C39.211067 36.342808 38.137711 37.548454 39.07568 38.664875C40.783291 40.189957 42.181782 42.201336 43.933319 43.664852C46.316769 45.656597 47.441975 44.509842 48.442413 42.059105C51.135342 35.462662 51.144703 20.459875 48.705261 13.772419C48.26004 12.551781 47.312889 10.166539 45.693138 10.409418M22.832064 4.0024948C20.435831 4.1584654 13.168818 5.2713161 11.360391 6.5510235C10.222944 7.3560376 9.8974457 8.5822086 10.549344 9.8355036C12.414661 11.412875 14.145494 13.816319 16.028275 15.290187C17.291203 16.278831 17.786293 15.513435 18.914375 15.109411C23.077089 13.618234 30.134544 13.53204 34.400776 14.745718C35.641739 15.098882 37.105404 16.317556 38.180199 15.290365C39.630722 13.524187 42.065121 11.692695 43.398083 9.9334764C45.235676 7.5084391 42.964382 6.219274 40.83532 5.5124102C35.471249 3.7312417 28.469784 3.6359463 22.832064 4.0024948M0.49110529 0.051838268C0.75053221 -0.022220928 0.98997551 0.0038336318 1.1892716 0.19835055L6.8570561 5.8218527C8.828413 7.0098333 10.321062 5.1977925 12.02309 4.5310812C12.96736 4.1609635 14.130011 3.9127314 15.128112 3.6827018C22.530689 1.9775558 34.927551 1.511429 42.051437 4.3069406C43.750225 4.9734731 45.568554 6.9678965 47.365639 5.6573162L52.757973 0.11751004C53.605026 -0.30953491 54.437317 0.50850689 53.739151 1.268729L48.436111 6.7184148C47.064266 8.5782824 48.672497 10.152799 49.425034 11.809583C52.611969 18.825933 52.519253 32.95982 50.466881 40.318089C50.25156 41.090267 49.917419 42.12442 49.606865 42.856445C48.854149 44.631012 46.951206 46.357216 48.437012 48.30167C49.782757 50.06303 52.535095 52.022835 53.739151 53.752426C54.364944 54.651669 53.705307 55.223438 52.757973 54.903648L47.268963 49.281036C45.468998 47.847145 43.681812 49.949177 41.955482 50.619099C34.69873 53.43531 19.843525 53.37767 12.564628 50.667282C12.162616 50.517559 11.656544 50.337318 11.283517 50.152615C9.9017668 49.46806 8.4804096 47.908176 6.8466144 49.189133C5.4376798 50.293774 3.5718222 52.396164 2.2557843 53.739578C1.8330679 54.170906 1.5781418 54.941299 0.80724245 54.997692C0.19729218 55.04213 -0.1913981 54.436092 0.097194083 53.920891L5.4079742 48.476913C7.1737332 46.227299 5.4492016 44.735409 4.6016083 42.677811C1.4929864 35.131092 1.4501387 19.843489 4.5517392 12.293734C5.2985144 10.475803 7.1195436 8.7190838 5.5914273 6.7194858C4.2631474 4.9813251 1.7853593 3.3816466 0.47436228 1.6195732C0.12203857 1.1461297 -0.3755714 0.29917812 0.49110529 0.051838268" fill="#1B1A21"></path>
</svg>
