<?xml version="1.0" encoding="utf-8" ?>
<svg xmlns="http://www.w3.org/2000/svg" xmlns:xlink="http://www.w3.org/1999/xlink" width="44" height="47">
	<path fill="#1b1a21" d="M29.863546 23.538363C25.914009 22.259989 22.989258 18.814365 21.756218 14.899671C20.477634 19.096544 17.791594 22.01193 13.68724 23.50679C13.506619 23.572485 13.308797 23.686178 13.507324 23.819693C13.543561 23.844046 14.133644 23.941599 14.352899 24.034195C17.942463 25.549868 20.523176 28.64011 21.756218 32.316517C22.823442 29.020409 25.039532 26.047539 28.124176 24.409821C28.663218 24.123676 29.454929 23.996675 29.863546 23.538363M43.366924 24.07214C43.220287 24.220804 42.841843 24.236946 42.630203 24.251812C36.380684 24.68832 29.95153 22.719292 25.278103 28.206434C21.049528 33.171268 22.787346 40.407558 22.252676 46.265228C22.178934 47.074249 21.616768 47.283371 21.261168 46.546558L21.264975 38.330784L21.119604 37.627243C21.172197 34.498348 20.425323 31.149286 18.502794 28.644924C14.069207 22.869797 6.8520079 24.487976 0.46346232 24.246998C-0.10843157 24.161764 -0.29257688 23.204504 0.74391031 23.109501C6.3407435 22.596962 12.37947 24.4632 17.101965 20.279491C20.766542 17.033079 21.130178 11.909387 21.264975 7.3279657C21.332796 5.0182824 21.211254 2.6971314 21.261026 0.38631579C21.314043 -0.12877193 22.198532 -0.12877193 22.251408 0.38631579L22.247601 8.0358925L22.392971 8.7394304C22.242664 13.583068 23.659851 18.896484 28.075813 21.438934C32.549587 24.014656 38.178005 22.724106 43.080414 23.220646C43.445744 23.374973 43.692352 23.742104 43.366924 24.07214" fill-rule="evenodd"/>
</svg>
