<svg height="55" width="50" xmlns:xlink="http://www.w3.org/1999/xlink" xmlns="http://www.w3.org/2000/svg">
	<path fill-rule="evenodd" d="M30.9268 5.4759526C30.028366 4.6173611 28.142069 3.255379 26.960274 2.9265344C26.167385 2.7059083 25.795637 2.6912465 25.615396 3.5978382L25.599451 50.899616C25.594078 51.332138 25.701357 51.950207 26.212793 52.029625C27.323357 52.202251 28.983658 51.129318 29.85211 50.453999C36.514458 45.272953 38.408726 31.756289 37.741661 23.834345C37.250675 18.003464 35.242714 9.600997 30.9268 5.4759526L30.9268 5.4759526ZM24.027712 51.832039L24.229443 50.899616L24.229616 3.5809071C24.030138 1.6930182 20.99151 3.8746679 20.247667 4.4754553C12.468689 10.759633 11.257778 25.941114 12.832292 35.132355C13.753776 40.510292 16.275423 48.240059 21.220625 51.12059C22.098434 51.631836 22.984911 52.011646 24.027712 51.832039L24.027712 51.832039ZM28.553679 53.24691C38.885674 52.185318 45.976612 44.220615 47.91785 34.263115C49.993053 23.618084 47.133278 10.536737 37.447208 4.5817537C35.219837 3.2124407 31.7852 1.9042188 29.167192 1.749222C28.80151 1.7275783 28.443281 1.6225017 28.552984 2.1049466C28.83132 2.0848739 29.066847 2.1744161 29.306013 2.3081181C35.816715 5.9454813 38.536629 16.714092 39.128132 23.6598C39.840607 32.025089 37.806129 45.943382 30.892138 51.50145C30.129404 52.114628 29.266499 52.583458 28.553679 53.24691L28.553679 53.24691ZM21.447313 1.7581239C12.86834 2.3655438 6.0016603 8.6893435 3.2465656 16.676741C-1.5071293 30.458364 3.3921452 50.138767 19.497759 53.030472C19.974012 53.115997 21.121838 53.419708 21.27487 52.900784C17.415796 50.898392 15.047874 46.969013 13.515303 42.997223C9.1758156 31.751226 9.5477371 11.756814 19.283201 3.329561L21.447313 1.7581239ZM23.141235 0.058744565C35.385178 -0.65671927 44.742134 5.1717191 48.438644 17.075577C53.054905 31.941656 47.522877 51.261448 30.670128 54.419682C17.750282 56.840809 6.5333724 51.68158 2.0330553 39.026825C-3.9776504 22.125017 3.4216077 1.2109224 23.141235 0.058744565L23.141235 0.058744565Z" fill="#1B1A21"></path>
</svg>
