<svg viewBox="0 0 52.77 52.9" xmlns="http://www.w3.org/2000/svg" data-name="Layer 2" id="Layer_2">
  <defs>
    <style>
      .cls-1 {
        fill: none;
      }

      .cls-2 {
        fill: #1b1a21;
      }
    </style>
  </defs>
  <g id="ARTWORK">
    <g>
      <path d="M23.57,36.05c1.25-.71.46-1.7.07-2.08-.9-.76-1.79-1.59-2.67-2.5-.89-.92-1.71-1.85-2.45-2.78-.36-.37-1.26-1.08-1.95-.12-.49.83-.91,1.66-1.25,2.46-1.17,2.77-1.22,4.99-.14,6.09,1.45,1.49,4.71.94,8.4-1.07Z" class="cls-1"></path>
      <path d="M34,28.88c-.78.93-1.63,1.84-2.54,2.73-.91.89-1.84,1.71-2.77,2.45-.38.38-1.13,1.32-.01,2.03,1.68.98,3.27,1.64,4.65,1.93l.2.04c.11.02.21.04.32.06,1.4.21,2.54,0,3.26-.7,1.52-1.48.92-4.84-1.19-8.62-.67-.93-1.54-.28-1.92.09Z" class="cls-1"></path>
      <path d="M18.78,23.47v.02c.72-.85,1.5-1.69,2.34-2.5.91-.89,1.85-1.71,2.8-2.47.37-.38,1.05-1.25.1-1.94-2.37-1.4-4.58-2.19-6.26-2.19-.96,0-1.74.25-2.29.79-1.48,1.44-.95,4.67,1.04,8.34.89,1.67,2.27-.05,2.27-.05Z" class="cls-1"></path>
      <path d="M15.78,11.96c-.2,1.49,1.9,1.24,1.9,1.24h-.04c2.39-.02,5.52,1.22,8.77,3.49,1.51-.99,3.01-1.8,4.45-2.36.84-.33,1.63-.56,2.37-.71h0c.19-.04.37-.08.54-.11.35-.08.7-.14,1.08-.17h-.02c2.9-.45,1.73-3.08,1.73-3.08l.04.1c-1.88-5.32-4.65-8.29-8.39-8.99-.7-.02-1.41-.04-2.15-.04-.45,0-.88.01-1.31.02-4.14.74-7.1,4.23-8.99,10.6Z" class="cls-1"></path>
      <path d="M34.42,26.41c-1.04-1.49-2.27-3-3.68-4.45-1.41-1.45-2.89-2.73-4.35-3.8-1.5,1.05-3.01,2.29-4.44,3.69-1.44,1.4-2.71,2.87-3.8,4.34,1.04,1.49,2.27,3,3.68,4.45,1.41,1.45,2.88,2.72,4.34,3.8,1.49-1.04,3-2.27,4.44-3.68,1.44-1.4,2.71-2.87,3.8-4.34Z" class="cls-1"></path>
      <path d="M38.92,14.04c6.42,1.55,10.53,4.02,12.41,7.47-1.03-11.31-5.17-14.68-5.22-14.72l.02-.02c-.2-.24-3.55-4.03-14.04-5.13,3.14,2.09,5.4,6.21,6.83,12.4Z" class="cls-1"></path>
      <path d="M36.48,41.56c.12-.79-.09-1.83-1.93-2.14-.44-.04-.86-.11-1.26-.19l-.45-.09v-.02c-2-.46-4.31-1.57-6.69-3.22-3.18,2.09-6.22,3.24-8.57,3.24-.18,0-.35-.03-.52-.04l.06.03c-1.51-.26-1.41,1.5-1.37,1.83,2.17,7.07,5.62,10.54,10.47,10.55,4.72-.02,8.1-3.3,10.26-9.96Z" class="cls-1"></path>
      <path d="M37.4,15.47c-.54-.56-1.37-.83-2.42-.83s-2.28.27-3.67.81c-.75.29-1.52.65-2.3,1.08l.11-.04c-1.47.74-.5,1.84-.13,2.19.88.75,1.75,1.56,2.61,2.44.86.88,1.65,1.78,2.38,2.68.31.34,1.42,1.37,2.18-.04.43-.74.8-1.48,1.1-2.2,1.17-2.77,1.22-4.99.14-6.09Z" class="cls-1"></path>
      <path d="M38.48,38.86c-1.59,6.61-4.08,10.82-7.55,12.7,9.67-.67,13.94-3.57,15.32-4.78l.4-.4c1.2-1.38,4.09-5.64,4.77-15.25-1.88,3.61-6.17,6.15-12.94,7.72Z" class="cls-1"></path>
      <path d="M14.87,42.07h0s0-.01,0-.02c-.08-.24-.17-.48-.25-.73-.92-2.4-2.5-3.28-3.17-3.55-4.98-1.49-8.31-3.63-10.03-6.45.97,11.21,4.98,14.75,5.23,14.96h.02s3.43,4.18,14.8,5.21c-2.81-1.59-5.01-4.74-6.59-9.41Z" class="cls-1"></path>
      <path d="M51.34,26.4c-.02-4.56-2.92-7.87-8.82-10.04.01,0,.02.01.02.01l-.05-.02c-.27-.1-.55-.19-.83-.28-.8-.14-1.91.04-2.2,1.99-.05.36-.12.72-.2,1.05-.05.21-.09.42-.13.62h0c-.17.72-.42,1.49-.76,2.29-.6,1.42-1.44,2.9-2.48,4.38,2.05,3.12,3.19,6.1,3.23,8.43h0c.28,1.91,1.35,2.13,2.16,2.01,6.73-2.15,10.04-5.6,10.06-10.46Z" class="cls-1"></path>
      <path d="M1.21,26.16c.02,4.88,3.48,8.31,10.56,10.45,1.25.21,1.42-1.05,1.44-1.6,0-.07,0-.15,0-.22,0-.02,0-.03,0-.03h0c.01-1.21.34-2.63,1-4.2.6-1.42,1.45-2.9,2.48-4.38-2.29-3.48-3.44-6.79-3.2-9.21l-.03.07c.13-1.63-1.28-1.51-1.8-1.41-7,2.13-10.43,5.6-10.45,10.54Z" class="cls-1"></path>
      <path d="M14.07,13.74c1.46-6.11,3.73-10.15,6.89-12.18-9.02.79-13.08,3.54-14.41,4.7l-.43.43c-1.16,1.33-3.87,5.34-4.68,14.2,2.02-3.31,6.2-5.68,12.63-7.15Z" class="cls-1"></path>
      <path d="M47.09,6.06h0c-.18-.23-4.28-5.37-18.7-5.87-.61-.11-1.24-.18-1.89-.18h-.07c-.62,0-1.21.07-1.79.16C13,.42,7.78,3.63,5.92,5.21h0s-.2.15-.45.41c-.25.25-.38.41-.41.45h0C3.43,7.99,0,13.55,0,26.2h0v.03c0,16.3,5.68,20.82,5.92,21h0c1.06,1.13,6.22,5.67,20.79,5.67h.03c12.58,0,18.14-3.38,20.11-5.04h0s.2-.16.46-.42c.26-.26.4-.42.43-.46h0c1.65-1.97,5.03-7.54,5.04-20.12h0v-.03c0-14.57-4.54-19.73-5.67-20.79ZM46.13,6.77l-.02.02s4.18,3.41,5.22,14.72c-1.88-3.45-5.99-5.92-12.41-7.47-1.44-6.19-3.69-10.31-6.83-12.4,10.49,1.1,13.84,4.9,14.04,5.13ZM26.22,51.52c-4.85-.02-8.3-3.48-10.47-10.55-.03-.33-.13-2.09,1.37-1.83l-.06-.03c.17.01.34.04.52.04,2.35,0,5.4-1.15,8.57-3.24,2.37,1.65,4.68,2.76,6.69,3.22v.02s.45.09.45.09c.4.08.82.14,1.26.19,1.84.31,2.05,1.35,1.93,2.14-2.16,6.66-5.54,9.95-10.26,9.96ZM26.08,1.34c.75,0,1.46.02,2.15.04,3.73.7,6.51,3.67,8.39,8.99l-.04-.1s1.17,2.63-1.73,3.07h.02c-.38.03-.73.1-1.08.17-.17.04-.35.07-.54.11h0c-.74.15-1.53.39-2.37.72-1.44.56-2.94,1.37-4.45,2.36-3.25-2.26-6.38-3.51-8.77-3.48h.04s-2.11.23-1.9-1.26c1.88-6.37,4.85-9.86,8.99-10.6.43,0,.86-.02,1.31-.02ZM37.11,37.41c-.72.71-1.87.91-3.26.7-.11-.02-.21-.04-.32-.06l-.2-.04c-1.38-.29-2.97-.95-4.65-1.93-1.12-.7-.37-1.65.01-2.03.93-.74,1.86-1.56,2.77-2.45.91-.89,1.75-1.8,2.54-2.73.38-.37,1.25-1.02,1.92-.09,2.11,3.79,2.71,7.14,1.19,8.62ZM15.32,31.02c.34-.8.76-1.63,1.25-2.46.69-.96,1.59-.24,1.95.12.75.93,1.56,1.86,2.45,2.78.88.9,1.77,1.73,2.67,2.5.39.38,1.17,1.37-.07,2.08-3.69,2.01-6.95,2.56-8.4,1.07-1.08-1.1-1.02-3.32.14-6.09ZM15.47,15.18c.55-.53,1.33-.79,2.29-.79,1.68,0,3.89.79,6.26,2.19.95.68.27,1.56-.1,1.94-.95.76-1.89,1.58-2.8,2.47-.84.81-1.62,1.65-2.35,2.5v-.02s-1.37,1.72-2.26.05c-1.98-3.67-2.52-6.89-1.04-8.34ZM21.83,30.63c-1.41-1.45-2.65-2.96-3.68-4.45,1.09-1.47,2.37-2.94,3.8-4.34,1.44-1.4,2.94-2.64,4.44-3.69,1.46,1.08,2.94,2.35,4.35,3.8,1.41,1.45,2.65,2.96,3.68,4.45-1.09,1.47-2.37,2.94-3.8,4.34-1.45,1.41-2.96,2.64-4.44,3.68-1.46-1.08-2.93-2.35-4.34-3.8ZM36.16,23.76c-.76,1.41-1.87.38-2.18.04-.73-.9-1.52-1.8-2.38-2.68-.86-.88-1.73-1.69-2.61-2.44-.37-.35-1.34-1.45.13-2.19l-.11.04c.78-.42,1.55-.78,2.3-1.08,1.39-.54,2.64-.81,3.67-.81s1.88.28,2.42.83c1.08,1.1,1.02,3.32-.14,6.09-.3.72-.67,1.45-1.1,2.2ZM11.65,15.62c.52-.1,1.93-.22,1.8,1.41l.03-.07c-.24,2.42.92,5.74,3.2,9.21-1.03,1.48-1.88,2.96-2.48,4.38-.66,1.57-.99,2.99-1,4.21h0s0,0,0,.02c0,.07,0,.15,0,.22-.02.55-.2,1.81-1.44,1.6-7.08-2.14-10.54-5.57-10.56-10.45.02-4.94,3.45-8.41,10.45-10.54ZM41.28,36.86c-.81.12-1.87-.11-2.16-2.02h0c-.04-2.33-1.18-5.31-3.23-8.42,1.03-1.48,1.88-2.96,2.48-4.38.34-.81.59-1.57.76-2.3h0c.04-.2.08-.41.13-.62.07-.33.14-.69.2-1.05.3-1.95,1.4-2.13,2.2-1.99.28.09.57.18.83.28l.05.02s-.01,0-.02-.01c5.9,2.17,8.81,5.49,8.82,10.04-.02,4.86-3.32,8.31-10.06,10.46ZM6.12,6.69l.43-.43c1.33-1.16,5.39-3.91,14.41-4.7-3.16,2.03-5.43,6.07-6.89,12.18-6.43,1.48-10.61,3.84-12.63,7.15.81-8.87,3.52-12.88,4.68-14.2ZM6.66,46.26h-.02c-.25-.19-4.25-3.73-5.23-14.94,1.73,2.82,5.05,4.96,10.03,6.45.68.28,2.25,1.15,3.17,3.55.08.25.17.49.25.73,0,0,0,.01,0,.02h0c1.58,4.67,3.78,7.81,6.59,9.4-11.37-1.02-14.77-5.17-14.8-5.22ZM46.65,46.39l-.4.4c-1.38,1.21-5.66,4.1-15.32,4.78,3.47-1.88,5.97-6.09,7.55-12.7,6.77-1.57,11.05-4.12,12.94-7.72-.68,9.61-3.57,13.87-4.77,15.25Z" class="cls-2"></path>
    </g>
  </g>
</svg>