<svg version="1.1" viewBox="0 0 6482 479" height="479px" width="6482px" xmlns:xlink="http://www.w3.org/1999/xlink" xmlns="http://www.w3.org/2000/svg">
    <title>updated graph</title>
    <g stroke-linejoin="round" stroke-linecap="round" fill-rule="evenodd" fill="none" stroke-width="1" stroke="none" id="Asset-Guide">
        <g transform="translate(-184, -101)" id="Graph--updated">
            <g transform="translate(186, 103.9056)" id="updated-graph">
                <path stroke-width="4" id="Stroke-1-Copy" d="M0,473.739637 L930.728819,473.739637 C930.728819,473.739637 1125.53243,481.732787 1221.39029,409.142842 C1317.24424,336.552896 1366.71712,315.28971 1502.77242,315.28971 C1638.82772,315.28971 1719.22262,298.210421 1808.89295,239.284123 C1898.56327,180.358903 1994.42113,112.892421 2037.71039,90.6885903 C2067.30951,75.5066716 2098.35411,38.7649762 2247.48155,17.0444009 C2280.16785,12.2836051 2319.28154,5.31211798 2363.78725,5.31211798 C2408.29297,5.31211798 2416.51215,13.9691908 2447,13.0883296 C2475.9304,12.2524666 2487.62345,0 2521.18945,0 C2554.75546,0 2572.59498,18.8298399 2600.02734,18.8298399 C2629.63068,18.826748 2669.73474,0.165445231 2703.88672,0.165445231 C2730.52678,0.162369623 2767.48924,18.8296544 2806.01562,18.8298399 C2827.37636,18.8295616 2866.63403,0.15938117 2901.00772,0.159588059 C2923.04987,0.159277726 2965.41978,18.8295218 3005.63281,18.8298399 C3026.32229,18.8293627 3059.38213,0.158914087 3097.04687,0.159277726 C3119.5975,0.158732267 3157.86174,18.8292458 3202.67578,18.8298399 C3225.03711,18.8289488 3265.40692,0.164579039 3310.50391,0.165445231 C3333.49589,0.164145943 3369.47378,18.8281092 3420.67969,18.8298399 C3448.39828,18.8307768 3487.55313,0 3523.53906,0 C3551.88281,0 3581.03054,11.6187524 3632.43359,16.6533081 C3658.70584,19.2264841 3688.53797,12.7486509 3715.63281,18.8298399 C3764.46894,29.790662 3809.64225,46.2073077 3834.23609,75.317122 C3899.16802,152.17662 4019.76037,302.479973 4112.52641,349.450445 C4176.73895,381.963972 4235.72311,408.581086 4495.96829,434.091371 C4611.67612,445.43352 4767.169,444.978706 4980.59531,444.978415 L6478,444.978415" stroke="#EDEFEA"></path>
            </g>
        </g>
    </g>
</svg>