<?xml version="1.0" encoding="utf-8" ?>
<svg xmlns="http://www.w3.org/2000/svg" xmlns:xlink="http://www.w3.org/1999/xlink" width="34" height="34">
	<path fill="none" stroke="#EDEFEA" stroke-width="1.5" stroke-miterlimit="10" transform="translate(0.75 0.750046)" d="M32 15.750487Q32 16.13714 31.980726 16.523329Q31.961454 16.909515 31.922956 17.294306Q31.884457 17.679096 31.826824 18.061562Q31.76919 18.444031 31.692562 18.823254Q31.615934 19.202477 31.520496 19.577543Q31.42506 19.95261 31.311043 20.322613Q31.197025 20.692616 31.064701 21.056664Q30.932377 21.420715 30.782068 21.777935Q30.63176 22.135155 30.463825 22.484686Q30.295891 22.834217 30.110737 23.175215Q29.925583 23.516212 29.723654 23.847855Q29.521725 24.179497 29.303509 24.500988Q29.085293 24.822479 28.851316 25.133041Q28.61734 25.443604 28.368164 25.742493Q28.118988 26.041378 27.855215 26.327869Q27.591442 26.614357 27.313705 26.887762Q27.035969 27.161167 26.744942 27.420826Q26.453911 27.680489 26.150291 27.925779Q25.846668 28.171068 25.531185 28.401398Q25.215702 28.631725 24.889118 28.846537Q24.562534 29.061352 24.225639 29.260132Q23.888744 29.458912 23.542347 29.641178Q23.195946 29.823444 22.840878 29.988758Q22.485809 30.154072 22.122932 30.302038Q21.760052 30.450005 21.390236 30.580263Q21.020416 30.710522 20.644554 30.822763Q20.268688 30.935001 19.88768 31.028952Q19.506674 31.1229 19.121443 31.198332Q18.736212 31.273766 18.347687 31.3305Q17.95916 31.387234 17.568275 31.425133Q17.177387 31.46303 16.785082 31.482002Q16.392776 31.500973 16 31.500975Q15.607222 31.500973 15.214917 31.482002Q14.822613 31.463028 14.431726 31.425131Q14.040838 31.387232 13.652311 31.330498Q13.263784 31.273766 12.878554 31.198332Q12.493323 31.1229 12.112316 31.028952Q11.73131 30.935003 11.355445 30.822765Q10.979579 30.710524 10.609761 30.580263Q10.239943 30.450005 9.8770638 30.302038Q9.514184 30.154072 9.1591167 29.988758Q8.8040504 29.823442 8.4576511 29.641176Q8.1112518 29.45891 7.7743554 29.260132Q7.4374585 29.061352 7.1108756 28.846537Q6.7842927 28.631725 6.468811 28.401396Q6.1533289 28.171066 5.8497076 27.925777Q5.5460863 27.680487 5.2550569 27.420826Q4.9640274 27.161167 4.6862912 26.887762Q4.408555 26.614357 4.1447821 26.327868Q3.8810084 26.041378 3.6318328 25.742491Q3.3826571 25.443604 3.1486793 25.133041Q2.9147017 24.822479 2.696486 24.500988Q2.4782701 24.179497 2.2763419 23.847855Q2.0744138 23.516212 1.8892597 23.175215Q1.7041054 22.834217 1.5361711 22.484688Q1.3682369 22.135155 1.2179273 21.777935Q1.0676178 21.420715 0.93529487 21.056665Q0.80297196 20.692616 0.68895459 20.322613Q0.57493716 19.95261 0.47949991 19.577543Q0.38406265 19.202477 0.30743548 18.823254Q0.2308083 18.444031 0.17317583 18.061562Q0.11554334 17.679096 0.077044368 17.294306Q0.038545396 16.909515 0.019272698 16.523329Q0 16.13714 0 15.750487Q0 15.363834 0.019272698 14.977648Q0.038545396 14.591461 0.077044368 14.20667Q0.11554334 13.821878 0.17317581 13.439411Q0.2308083 13.056943 0.30743548 12.677719Q0.38406265 12.298496 0.47949988 11.92343Q0.57493716 11.548365 0.68895459 11.178362Q0.80297196 10.808357 0.93529487 10.444307Q1.0676178 10.080256 1.2179273 9.7230358Q1.3682369 9.3658161 1.5361711 9.0162859Q1.7041053 8.6667557 1.8892596 8.3257589Q2.0744138 7.9847612 2.2763419 7.6531177Q2.4782701 7.3214741 2.696486 6.9999843Q2.9147017 6.6784945 3.1486793 6.3679318Q3.3826568 6.0573702 3.6318326 5.7584839Q3.8810081 5.4595971 4.1447816 5.1731062Q4.408555 4.8866158 4.6862912 4.6132107Q4.9640274 4.3398056 5.2550569 4.0801458Q5.5460863 3.8204856 5.8497076 3.575196Q6.1533289 3.329906 6.468811 3.099577Q6.7842932 2.8692482 7.1108761 2.6544354Q7.437459 2.4396226 7.7743554 2.2408435Q8.1112518 2.0420642 8.4576511 1.8597975Q8.8040504 1.6775305 9.1591167 1.5122153Q9.514184 1.3469 9.8770638 1.1989343Q10.239943 1.0509688 10.60976 0.92070937Q10.979579 0.79045004 11.355445 0.67821068Q11.73131 0.56597126 12.112316 0.47202229Q12.493323 0.37807333 12.878554 0.30264115Q13.263784 0.22720894 13.652311 0.1704752Q14.040838 0.11374149 14.431726 0.075842895Q14.822613 0.037944298 15.214918 0.018972149Q15.607222 0 16 0Q16.392776 0 16.785082 0.018972149Q17.177387 0.037944298 17.568274 0.075842895Q17.95916 0.11374149 18.347685 0.17047521Q18.736212 0.22720894 19.121443 0.30264115Q19.506674 0.37807333 19.88768 0.47202229Q20.268688 0.56597126 20.644554 0.67821062Q21.020416 0.79044998 21.390234 0.92070937Q21.760052 1.0509688 22.122932 1.1989343Q22.485809 1.3469 22.840878 1.5122153Q23.195946 1.6775305 23.542345 1.8597975Q23.888744 2.0420644 24.225639 2.2408435Q24.562534 2.4396229 24.889118 2.6544356Q25.215702 2.8692484 25.531185 3.0995772Q25.846668 3.329906 26.150291 3.575196Q26.453911 3.8204856 26.74494 4.0801458Q27.035969 4.3398056 27.313705 4.6132107Q27.591442 4.8866158 27.855215 5.1731062Q28.118988 5.4595971 28.368164 5.7584839Q28.61734 6.0573702 28.851316 6.3679323Q29.085293 6.6784945 29.303509 6.9999847Q29.521725 7.321475 29.723654 7.6531181Q29.925583 7.9847612 30.110739 8.3257589Q30.295891 8.6667557 30.463827 9.0162859Q30.63176 9.3658161 30.78207 9.7230358Q30.932381 10.080256 31.064703 10.444307Q31.197025 10.808357 31.311045 11.178362Q31.42506 11.548365 31.520498 11.92343Q31.615936 12.298496 31.692562 12.677719Q31.76919 13.056943 31.826822 13.439411Q31.884457 13.821878 31.922956 14.20667Q31.961454 14.591461 31.980728 14.977648Q32 15.363834 32 15.750487Z"/>
	<path fill="none" stroke="#EDEFEA" stroke-width="1.5" stroke-miterlimit="10" transform="translate(9.98077 12.26)" d="M0 5.1491976L4 9.0868196L13.846154 0" fill-rule="evenodd"/>
</svg>
