<?xml version="1.0" encoding="utf-8" ?>
<svg xmlns="http://www.w3.org/2000/svg" xmlns:xlink="http://www.w3.org/1999/xlink" width="38" height="48">
	<path fill="#EDEFEA" transform="translate(10.1385 17.7715)" d="M7.0384164 11.767316C6.8569031 11.767316 6.6753902 11.700442 6.5320902 11.557142L0.20778495 5.2328372C-0.069261648 4.9557905 -0.069261648 4.4972305 0.20778495 4.2201838C0.48483154 3.9431374 0.94339144 3.9431374 1.220438 4.2201838L7.0384164 10.038162L16.868793 0.20778495C17.145842 -0.069261648 17.604401 -0.069261648 17.881447 0.20778495C18.158493 0.48483154 18.158493 0.94339144 17.881447 1.220438L7.5447431 11.557142C7.401443 11.700442 7.2199297 11.767316 7.0384164 11.767316Z"/>
	<path fill="#EDEFEA" transform="translate(1.90735e-06 0.0500488)" d="M18.638548 47C18.504803 47 18.361502 46.961788 18.246862 46.885361L16.450836 45.700748C14.94141 44.707199 7.3560648 39.6917 4.6620255 37.695057C1.7387062 35.536003 0 31.724224 0 27.511206L0 8.2994566C0 7.9077697 0.32481325 7.5829563 0.71649981 7.5829563C8.5215712 7.5829563 18.103561 0.22689161 18.199095 0.15046497C18.457035 -0.050154988 18.820063 -0.050154988 19.078001 0.15046497C19.173534 0.22689161 28.755526 7.5829563 36.560596 7.5829563C36.952286 7.5829563 37.277096 7.9077697 37.277096 8.2994566L37.277096 27.511206C37.277096 31.733778 35.538391 35.536003 32.61507 37.695057C29.91148 39.6917 22.335688 44.707199 20.835815 45.691193L19.030235 46.885361C18.915596 46.961788 18.772295 47 18.638548 47L18.638548 47ZM2.5793993 8.8917627C1.9202195 8.9681892 1.4329996 9.5318356 1.4329996 10.200569L1.4329996 27.511206C1.4329996 31.275217 2.9615326 34.657097 5.5122719 36.548656C8.244525 38.564407 16.317089 43.895168 17.224655 44.497028L17.912495 44.946033C18.35195 45.232635 18.925148 45.232635 19.364601 44.946033L20.033335 44.50658C20.960009 43.895168 29.032574 38.564407 31.764826 36.548656C34.315563 34.657097 35.844097 31.284771 35.844097 27.511206L35.844097 10.200569C35.844097 9.5413895 35.356876 8.9777431 34.697697 8.8917627C28.507139 8.1466026 22.010874 3.9909041 19.383709 2.1471112C18.925148 1.8318512 18.332842 1.8318512 17.883835 2.1471112C15.25667 3.9909041 8.7604046 8.1466026 2.5698459 8.8917627L2.5793993 8.8917627Z"/>
</svg>
