<svg preserveAspectRatio="xMidYMid meet" viewBox="0 0 1350.000000 477.000000" height="477.000000pt" width="1350.000000pt" xmlns="http://www.w3.org/2000/svg" version="1.0">
<metadata>
Created by potrace 1.10, written by Peter Selinger 2001-2011
</metadata>
<g stroke="none" fill="#000000" transform="translate(0.000000,477.000000) scale(0.100000,-0.100000)">
<path d="M2459 4454 c-35 -42 -44 -287 -30 -812 13 -494 13 -498 -46 -496 -44
2 -217 89 -293 148 -197 152 -452 420 -494 519 -19 47 -70 102 -111 121 -30
15 -38 15 -68 2 -44 -18 -50 -28 -50 -91 0 -46 6 -61 52 -130 106 -162 403
-478 554 -591 54 -41 102 -74 107 -74 4 0 31 -16 61 -36 47 -33 82 -51 233
-117 27 -12 55 -31 62 -42 13 -20 57 -375 69 -555 8 -134 21 -173 72 -230 48
-53 100 -73 128 -50 30 25 53 96 56 176 4 92 -8 279 -21 344 -11 49 -24 275
-22 354 1 30 10 63 24 85 115 193 117 197 124 289 6 82 4 91 -26 167 -55 136
-94 171 -106 96 -16 -99 -46 -74 -57 47 -4 48 -11 236 -15 417 -7 312 -8 332
-29 370 -39 72 -77 105 -121 105 -24 0 -45 -6 -53 -16z"></path>
<path d="M716 4136 c-20 -19 -25 -38 -31 -102 -3 -43 -11 -92 -15 -109 -5 -16
-12 -54 -16 -83 -4 -29 -14 -63 -24 -74 l-17 -21 -35 21 c-20 12 -64 45 -99
74 -71 56 -195 118 -238 118 -36 0 -51 -18 -58 -69 -10 -75 20 -114 145 -190
81 -48 205 -155 236 -202 25 -36 27 -48 22 -98 -3 -31 -8 -146 -12 -256 -5
-182 -4 -208 15 -289 37 -156 82 -232 154 -261 87 -36 97 -36 124 -9 22 23 25
31 19 72 -3 25 -15 60 -25 78 -38 65 -51 135 -51 286 0 128 2 147 18 161 10
10 24 17 30 17 21 0 115 -97 167 -171 135 -193 209 -245 266 -188 43 43 4 172
-79 262 -26 29 -60 68 -74 87 -14 20 -76 92 -138 160 -62 69 -119 139 -126
157 -18 42 -18 139 0 228 15 74 21 153 18 248 -2 56 -4 60 -60 117 -32 33 -66
60 -75 60 -10 0 -29 -11 -41 -24z"></path>
<path d="M6887 3790 c-21 -23 -27 -40 -27 -78 0 -83 118 -262 172 -262 20 0
67 58 77 94 12 47 -1 130 -28 166 -30 42 -120 110 -145 110 -13 0 -34 -13 -49
-30z"></path>
<path d="M5689 3385 c-31 -17 -57 -68 -75 -145 -31 -133 -53 -220 -72 -285
-11 -38 -24 -88 -28 -110 -4 -22 -11 -48 -16 -57 -4 -10 -13 -50 -19 -90 -26
-192 -51 -393 -60 -493 -5 -60 -13 -150 -18 -200 -15 -152 -13 -472 5 -592 19
-133 65 -288 109 -369 38 -70 139 -206 195 -262 21 -20 76 -58 123 -85 70 -38
101 -49 161 -57 41 -5 86 -12 99 -15 34 -9 143 13 202 40 27 13 75 35 105 49
78 36 213 158 269 244 65 100 111 176 146 240 49 90 87 96 111 16 93 -307 132
-416 187 -520 47 -92 153 -208 203 -224 40 -14 117 -6 133 13 35 43 18 218
-32 315 -36 71 -37 73 -81 81 -39 9 -64 51 -111 192 -19 59 -42 120 -50 135
-8 16 -15 40 -15 53 0 13 -11 58 -25 100 -13 42 -36 130 -50 196 -35 165 -74
302 -97 350 -42 83 -99 125 -172 125 -36 0 -48 -5 -65 -26 -17 -22 -20 -40
-19 -117 1 -149 -58 -371 -149 -555 -53 -108 -158 -249 -232 -311 -133 -112
-286 -162 -397 -131 -49 14 -158 105 -181 152 -44 88 -83 182 -83 199 0 12 -8
46 -17 77 -16 49 -18 96 -17 342 2 374 30 689 80 907 8 34 14 75 14 91 0 30
21 104 71 257 16 50 40 132 53 183 22 87 23 97 9 150 -16 62 -32 86 -78 118
-41 30 -84 36 -116 19z"></path>
<path d="M8090 2911 c-160 -22 -168 -24 -426 -107 -111 -35 -208 -72 -216 -82
-28 -30 -31 -77 -10 -124 24 -54 43 -70 109 -93 l52 -18 78 27 c82 29 300 93
368 107 70 15 276 30 405 29 115 0 223 -14 310 -40 19 -5 47 -10 61 -10 27 0
114 -34 252 -98 142 -66 217 -169 225 -307 4 -77 0 -103 -31 -241 -60 -260
-234 -521 -600 -901 -49 -51 -99 -106 -112 -123 -13 -17 -41 -48 -63 -68 -99
-91 -62 -263 66 -304 45 -15 54 -15 138 4 49 11 125 31 169 44 44 13 86 24 93
24 6 0 35 11 64 25 28 14 56 25 61 25 5 0 50 18 101 41 50 22 114 48 141 56
28 8 59 20 70 27 11 7 58 30 105 51 47 21 117 52 155 70 39 18 88 38 110 45
22 7 78 32 125 56 82 42 278 128 350 153 57 21 267 110 382 162 59 27 112 49
118 49 6 0 44 16 85 35 112 54 214 95 273 111 29 8 117 38 195 66 78 28 183
64 232 79 50 15 110 34 135 42 25 8 83 24 130 35 131 32 272 72 300 87 14 7
41 16 60 19 48 10 357 84 400 97 108 32 231 59 275 59 79 1 132 30 157 87 17
38 19 52 10 77 -6 17 -16 51 -22 76 -14 56 -53 98 -97 106 -27 5 -49 -1 -106
-30 -40 -19 -107 -42 -151 -51 -43 -9 -86 -19 -95 -24 -9 -4 -45 -16 -81 -26
-36 -9 -76 -23 -90 -30 -14 -7 -47 -17 -75 -23 -67 -14 -149 -37 -317 -88 -29
-9 -78 -22 -109 -29 -30 -7 -65 -18 -77 -24 -12 -6 -63 -23 -114 -36 -51 -14
-123 -34 -160 -45 -38 -11 -98 -29 -135 -39 -66 -19 -155 -52 -191 -70 -9 -5
-42 -18 -72 -29 -30 -11 -84 -32 -120 -46 -36 -14 -96 -35 -135 -47 -69 -21
-222 -83 -300 -121 -22 -11 -80 -35 -130 -54 -49 -19 -99 -41 -110 -48 -11 -7
-58 -27 -105 -45 -47 -18 -103 -41 -126 -52 -22 -10 -46 -19 -54 -19 -13 0
-99 -39 -255 -116 -49 -24 -96 -44 -103 -44 -7 0 -36 -13 -65 -30 -30 -16 -62
-30 -73 -30 -10 0 -48 -14 -84 -31 -99 -47 -308 -128 -338 -131 -43 -5 -38 26
16 95 27 34 55 73 61 85 7 13 27 40 45 60 43 48 116 156 149 218 46 90 95 201
102 234 4 18 17 55 30 84 35 77 48 216 37 368 -10 127 -10 128 -67 245 -50
103 -69 129 -143 205 -47 48 -95 91 -106 94 -12 4 -38 18 -60 31 -73 47 -239
108 -396 147 -221 54 -458 67 -680 37z"></path>
</g>
</svg>
