<svg version="1.1" viewBox="0 0 6482 479" height="479px" width="6482px" xmlns:xlink="http://www.w3.org/1999/xlink" xmlns="http://www.w3.org/2000/svg">
    <title>updated graph</title>
    <g stroke-linejoin="round" stroke-linecap="round" fill-rule="evenodd" fill="none" stroke-width="1" stroke="none" id="Asset-Guide">
        <g transform="translate(-184, -101)" id="Graph--updated">
            <g transform="translate(186, 103.9056)" id="updated-graph">
                <path stroke-width="4" id="Path-3-Copy" d="M0,452.77532 C535.563344,450.860711 847.563344,450.860711 936,452.77532 C1068.65498,455.647235 1117.67385,385.621115 1188.23826,327.978362 C1205.61233,313.785804 1221.12383,303.14273 1237.22396,295.161647 C1286.51415,270.727741 1341.32144,271.243724 1471.98142,271.243724 C1519.74479,271.243724 1608.07567,271.243724 1688.4144,271.243724 C1768.75314,271.243724 1899.66269,263.41979 2050.86886,135.236259 C2158.34632,44.1233128 2310.50386,14.8583424 2438.85836,5.45859707 C2465.94075,3.47528059 2494.03969,14.1850301 2518.35938,13.5761346 C2548.57837,12.8195373 2574.0917,1.01086434 2597.8177,1.01086434 C2640.65625,1.01086434 2646.53753,20.7892111 2691.20313,20.7892111 C2722.07426,20.7892111 2761.29938,1.01086434 2801.37109,1.01086434 C2833.3037,1.01086434 2870.85205,20.7892111 2907.02344,20.7892111 C2938.68031,20.7892111 2968.54743,1.01086434 3002.42942,1.01086434 C3033.84494,1.01086434 3071.14902,20.7892111 3103.6875,20.7892111 C3138.45981,20.7892111 3168.51928,1.01086434 3203.67612,1.01086434 C3235.1745,1.01086434 3271.40278,20.7892111 3302.50391,20.7892111 C3346.62172,20.7892111 3385.24249,1.01086434 3426.93748,1.01086434 C3459.82117,1.01086434 3494.7491,27.4154969 3525.06641,27.4154969 C3563.4796,27.4154969 3596.36396,1.01086434 3628.9571,1.01086434 C3668.09109,1.01086434 3699.30984,27.4154969 3727.03906,27.4154969 C3758.46272,27.4154969 3763.71484,1.01086434 3846.37899,1.1938851 C3943.61809,1.4091752 4043.57407,9.29468769 4098.37572,56.7417661 C4162.74523,112.472668 4201.20468,271.243724 4276.79317,271.243724 C4352.38166,271.243724 4300.10836,135.236259 4346.85718,135.236259 C4393.606,135.236259 4346.85718,431.293131 4393.606,431.293131 C4417.75997,431.293131 4419.96646,401.846453 4421.74988,366.5418 C4423.41818,333.516043 4424.71627,301.556184 4443.26366,301.556184 C4481.63829,301.556184 4453.00332,382.612202 4492.7141,382.612202 C4532.42489,382.612202 4489.50209,90.7583756 4550.5956,90.7583756 C4611.68911,90.7583756 4573.0797,426.499091 4623.71685,426.499091 C4674.35399,426.499091 4634.53011,180.08632 4683.39887,180.08632 C4732.26764,180.08632 4689.80469,425.488227 4745.36791,422.616312 C4765.52812,421.574285 4777.74902,377.215367 4857.21547,377.215367 C4910.19311,377.215367 5450.45462,377.215367 6478,377.215367" stroke="#C7495E"></path>
            </g>
        </g>
    </g>
</svg>