<?xml version="1.0" encoding="utf-8" ?>
<svg xmlns="http://www.w3.org/2000/svg" xmlns:xlink="http://www.w3.org/1999/xlink" width="730" height="114">
	<path fill="#EDEFEA" transform="translate(0 0.0317383)" d="M401.03595 7.5258489C391.98016 2.5389514 382.04349 0.029346526 371.22214 0.0003091073C360.40076 -0.031688217 350.47549 2.4204724 341.4425 7.3571057C332.40952 12.293739 325.25601 19.014742 319.98203 27.527292C314.70804 36.039845 312.05396 45.360207 312.02325 55.484795C311.98941 65.717087 314.58273 75.130798 319.80356 83.722336C325.02441 92.317467 332.13232 99.106682 341.13495 104.09358C350.13757 109.08048 360.04764 111.59008 370.8652 111.61912C381.68658 111.65112 391.63843 109.19896 400.72839 104.26591C409.81454 99.33287 417.02118 92.583145 422.35214 84.020332C427.67929 75.45752 430.35992 66.06176 430.39444 55.82946C430.42828 45.701286 427.80457 36.366558 422.53439 27.825287C417.26038 19.284012 410.09552 12.519927 401.03973 7.5330296L401.03595 7.5258489ZM398.211 71.001984C395.35187 75.593948 391.51694 79.22731 386.69858 81.898476C381.88022 84.573235 376.68597 85.901642 371.11203 85.883865C365.42795 85.865738 360.18436 84.508614 355.38498 81.808723C350.58182 79.108833 346.80002 75.453926 344.02444 70.847595C341.25266 66.241272 339.87436 61.250782 339.89316 55.876137C339.91232 50.505077 341.32098 45.49305 344.12317 40.850819C346.92532 36.208588 350.73367 32.52496 355.55203 29.79994C360.37039 27.074917 365.62161 25.721382 371.30566 25.73563C376.87961 25.753695 382.06628 27.161085 386.86566 29.965092C391.66501 32.7691 395.47717 36.477859 398.30591 41.084187C401.13086 45.690514 402.53574 50.681004 402.52069 56.055649C402.50156 61.430298 401.06631 66.413605 398.211 71.001984L398.211 71.001984ZM78.904831 68.815498C77.875847 65.763763 76.463379 62.970528 74.671204 60.432198C72.875237 57.897461 70.775513 55.847412 68.379631 54.28923C70.57048 52.745411 72.351257 50.889236 73.725761 48.7243C75.096466 46.559361 76.087479 44.290306 76.698792 41.91354C77.306305 39.540367 77.617653 37.109749 77.625252 34.628864C77.640434 29.771217 76.508942 25.04282 74.226959 20.432901C71.944984 15.830164 68.516319 11.91676 63.937172 8.6998701C59.358028 5.4829803 53.844826 3.5047364 47.397572 2.7615488C45.647171 2.5497224 43.570229 2.416882 41.166744 2.3558474C39.370777 2.3127639 30.618763 2.3091736 27.759645 2.2984028L27.759645 2.2409585C27.759645 2.2409585 0.34552425 2.1619723 0.34552425 2.1619723L0 109.12715L43.608196 109.25306C51.038868 109.27435 57.546871 107.89928 63.132214 105.12399C68.71376 102.34871 72.989151 98.589684 75.954582 93.843338C78.920013 89.100578 80.412224 83.934166 80.431396 78.354874C80.442596 75.048225 79.930008 71.870827 78.904831 68.815498ZM27.816601 27.071327L41.087009 27.085688C43.274063 27.092869 45.267471 27.87196 47.063438 29.42655C48.863201 30.981142 49.759289 32.948612 49.751743 35.325378C49.744099 37.705734 48.836624 39.640896 47.025471 41.130859C45.218113 42.624416 43.220905 43.367603 41.033852 43.360474L27.85457 43.360474C27.85457 43.360474 27.816601 27.071327 27.816601 27.071327L27.816601 27.071327ZM51.243904 80.828575C50.363007 82.013367 49.269478 82.914528 47.955727 83.532051C46.641975 84.149582 45.218113 84.454758 43.69173 84.451195L27.953291 84.404495L27.983667 74.86512L27.93051 74.86512C27.93051 74.86512 27.915321 68.165657 27.915321 68.165657L43.744888 68.172844C45.275066 68.17643 46.695133 68.492378 48.005089 69.117081C49.315041 69.741791 50.400974 70.675262 51.274281 71.917503C52.143784 73.159737 52.576641 74.660477 52.572868 76.416122C52.569046 78.175362 52.124802 79.647369 51.2477 80.832161L51.243904 80.828575ZM91.989182 2.4276528L119.85894 2.506639L119.51342 109.47182L91.643661 109.39283L91.989182 2.4276528L91.989182 2.4276528ZM218.62192 7.9064183C209.56615 2.9195211 199.62949 0.4099161 188.80812 0.38087869C177.98676 0.34888136 168.06148 2.8010418 159.02849 7.7376752C149.99548 12.674309 142.842 19.395311 137.56801 27.907862C132.29402 36.420414 129.63994 45.740776 129.60922 55.865364C129.57539 66.097656 132.16872 75.511368 137.38956 84.102905C142.61038 92.698036 149.71831 99.487251 158.72093 104.47415C167.72354 109.46105 177.63364 111.97065 188.4512 111.99969C199.27257 112.03168 209.22443 109.57953 218.31436 104.64648C227.40051 99.71344 234.60716 92.963715 239.93811 84.400902C245.26526 75.838089 247.94592 66.442329 247.98042 56.21003C248.01427 46.081856 245.39056 36.747128 240.12036 28.205856C234.84637 19.664581 227.68149 12.900496 218.62572 7.913599L218.62192 7.9064183ZM215.79318 71.37896C212.93407 75.970924 209.09912 79.604286 204.28076 82.275459C199.46242 84.950211 194.26816 86.278618 188.6942 86.260849C183.01015 86.242714 177.76653 84.88559 172.96716 82.185699C168.16399 79.485809 164.3822 75.830902 161.60663 71.224579C158.83484 66.618248 157.45654 61.627762 157.47533 56.253113C157.49451 50.882057 158.90318 45.870029 161.70535 41.227798C164.50751 36.585567 168.31587 32.901939 173.13423 30.176918C177.95258 27.451897 183.20378 26.098362 188.88785 26.11261C194.46181 26.130674 199.64847 27.538063 204.44783 30.342072C209.24721 33.14608 213.05936 36.854839 215.88811 41.461166C218.71304 46.067493 220.11792 51.05798 220.10286 56.432629C220.08376 61.807278 218.6485 66.790581 215.79318 71.37896L215.79318 71.37896ZM285.13345 84.368591L311.63629 84.451164L311.55276 110.02831L257.18015 109.86316L257.52567 2.8979795L285.39542 2.9769654L285.13345 84.364998L285.13345 84.368591ZM495.62985 54.684162L523.49957 54.763149L523.32495 109.01945L495.45517 108.94046C484.4136 108.90814 474.45035 106.50266 465.55783 101.724C456.66156 96.945335 449.71689 90.464882 444.71628 82.286224C439.71188 74.107574 437.22867 65.110336 437.26248 55.29092C437.2894 46.509098 439.30939 38.398659 443.3266 30.970371C447.34 23.542084 452.79623 17.381165 459.69913 12.491204C466.60202 7.604835 474.31744 4.4489799 482.84546 3.0236392C484.81607 2.6179376 487.46255 2.3378959 490.80011 2.1942847C494.13385 2.0470834 504.28314 1.9752777 511.82391 2.0004096L514.28436 2.0075903L514.20081 27.584738L507.02835 27.584738C499.59387 27.566786 494.34647 27.681675 491.28992 27.929403C488.22955 28.180723 485.76532 28.665411 483.9086 29.379877C480.40399 30.611343 477.22974 32.539322 474.38199 35.167408C471.53049 37.79549 469.28268 40.886723 467.63098 44.448277C465.97931 48.009834 465.14777 51.700642 465.13638 55.524288C465.12119 60.381935 466.38937 64.93441 468.94473 69.178116C471.49631 73.425415 475.06924 76.846954 479.64841 79.439133C484.23135 82.034904 489.418 83.341766 495.21219 83.359718L495.53873 83.359718C495.53873 83.359718 495.62985 54.680573 495.62985 54.680573L495.62985 54.684162ZM535.96503 1.4690484L563.83484 1.5480345L563.48926 108.51321L535.61951 108.43423L535.96503 1.4690484ZM687.02368 8.7537241C674.98352 14.042205 665.5556 22.177776 658.7439 33.167622C651.93213 44.153873 648.49963 57.919003 648.44647 74.45224L648.41992 82.235962L631.09052 82.458557L630.76398 82.458557C624.96985 82.440613 619.78314 81.133751 615.2002 78.537979C610.61725 75.942207 607.0481 72.520668 604.49658 68.276962C601.94122 64.033249 600.67303 59.484367 600.68817 54.623127C600.69958 50.79948 601.53113 47.105083 603.1828 43.547119C604.83447 39.985561 607.08228 36.890739 609.93384 34.266247C612.78156 31.638163 615.95959 29.710182 619.46039 28.478716C621.32092 27.76066 623.78137 27.275974 626.84174 27.028244C629.9021 26.780516 628.35291 26.676397 635.78741 26.697939L638.2478 26.705118L638.33136 1.1279719L635.87091 1.1207913C628.33014 1.0992496 629.68567 1.1459233 626.35193 1.2931247C623.01819 1.4403261 620.36792 1.7167777 618.39728 2.1224792C609.86926 3.5478199 602.15381 6.7036753 595.25092 11.590045C588.34802 16.480005 582.89178 22.637333 578.87842 30.06921C574.86121 37.501087 572.84503 45.607937 572.81439 54.389759C572.78424 64.209175 575.26752 73.206413 580.26813 81.385071C585.26868 89.563721 592.21338 96.044174 601.10968 100.82284C610.00214 105.60509 619.96539 108.00699 631.00702 108.0393L657.4187 107.98544L657.4187 107.65514C657.4187 107.65514 676.2099 107.70899 676.2099 107.70899L676.25928 92.206169L700.98895 92.234894L701.02692 107.7808L728.67267 107.85979L729.01819 0.89399129C713.05951 0.84793013 699.06012 3.4688337 687.02368 8.7573147L687.02368 8.7537241ZM700.93579 66.650566L676.66937 66.621841C677.56921 57.840019 679.99933 50.483536 683.95575 44.552395C687.90839 38.621254 693.60382 34.323692 701.04968 31.656115L700.93579 66.650566Z"/>
</svg>
