<?xml version="1.0" encoding="utf-8" ?>
<svg xmlns="http://www.w3.org/2000/svg" xmlns:xlink="http://www.w3.org/1999/xlink" width="49" height="48">
	<path fill="#1b1a21" transform="translate(0.069582 0.0695801)" d="M47.643475 45.770676L38.49078 36.790855C38.337112 36.637192 38.37553 36.37788 38.567612 36.272236L40.190701 35.465492C40.430805 35.340637 40.584469 35.090931 40.584469 34.822018L40.584469 14.115606C40.584469 14.115606 40.584469 14.096398 40.584469 14.086795C40.584469 14.067586 40.584469 14.048378 40.584469 14.02917C40.584469 13.961942 40.555656 13.894712 40.526844 13.827484C40.526844 13.81788 40.526844 13.798672 40.517242 13.789067C40.517242 13.789067 40.507637 13.779464 40.498032 13.769859C40.459618 13.693027 40.411598 13.625798 40.344368 13.568173C40.334763 13.55857 40.315556 13.548965 40.30595 13.539361C40.267536 13.51055 40.229118 13.481737 40.190701 13.462529L21.366692 4.0505238C21.165007 3.9448786 20.924904 3.9448786 20.723219 4.0505238L10.600511 9.1118774C10.475657 9.1695023 10.331596 9.1502934 10.235556 9.0542526L1.226922 0.20888889C0.9387995 -0.069629632 0.48740742 -0.069629632 0.20888889 0.20888889C-0.069629632 0.49701148 -0.069629632 0.9484036 0.20888889 1.226922L8.7085056 9.5728731C8.8621712 9.7265387 8.8237553 9.9858494 8.6316729 10.091495L1.8992082 13.462529C1.8992082 13.462529 1.8223755 13.51055 1.7839592 13.548965C1.7743551 13.548965 1.764751 13.55857 1.7551469 13.568173C1.6879183 13.625798 1.6398978 13.693027 1.6014814 13.769859C1.6014814 13.769859 1.5918773 13.779464 1.5822734 13.789067C1.5822734 13.798672 1.5822734 13.81788 1.5726693 13.827484C1.543857 13.894712 1.5246488 13.952337 1.5150447 14.02917C1.5150447 14.048378 1.5150447 14.067586 1.5150447 14.086795C1.5150447 14.086795 1.5150447 14.106003 1.5150447 14.115606L1.5150447 34.822018C1.5150447 35.090931 1.6687101 35.340637 1.9088123 35.465492L20.732822 44.877499C20.732822 44.877499 20.742426 44.877499 20.752031 44.877499C20.848072 44.925518 20.944113 44.944725 21.049757 44.944725C21.155403 44.944725 21.261047 44.915913 21.347485 44.877499C21.347485 44.877499 21.357088 44.877499 21.366692 44.877499L36.598774 37.261456C36.723625 37.203831 36.867687 37.223038 36.96373 37.31908L46.625443 46.798313C46.769501 46.93277 46.951981 47 47.134457 47C47.316936 47 47.509018 46.923168 47.653076 46.788712C47.931595 46.500587 47.931595 46.049194 47.653076 45.770676L47.643475 45.770676ZM39.153461 15.940383L39.153461 34.120918C39.153461 34.274586 39.067024 34.418648 38.932568 34.485874L37.299873 35.302223C37.175018 35.359848 37.030956 35.340637 36.934917 35.244598L24.526436 23.066616C24.372772 22.912951 24.411188 22.653641 24.60327 22.547995L38.567612 15.565824C38.836525 15.431367 39.153461 15.623448 39.153461 15.930779L39.153461 15.940383ZM20.876884 5.6063857C20.992132 5.5487614 21.126591 5.5487614 21.241838 5.6063857L37.539974 13.760256C37.8377 13.91392 37.8377 14.3365 37.539974 14.490166L23.316322 21.597191C23.191469 21.654816 23.047407 21.635607 22.951366 21.539566L11.82023 10.610115C11.666565 10.45645 11.704981 10.197139 11.897062 10.091495L20.876884 5.6063857ZM20.339054 42.409248C20.339054 42.716576 20.02212 42.908661 19.753206 42.7742L3.1861558 34.49548C3.0516987 34.428249 2.9652617 34.284187 2.9652617 34.130524L2.9652617 15.949987C2.9652617 15.642656 3.2821968 15.450575 3.5511112 15.585032L20.11816 23.87336C20.252619 23.940588 20.339054 24.084648 20.339054 24.238314L20.339054 42.41885L20.339054 42.409248ZM21.241838 22.634432C21.126591 22.692057 20.992132 22.692057 20.876884 22.634432L4.5787482 14.480562C4.2810216 14.326897 4.2810216 13.904317 4.5787482 13.750651L9.937829 11.071111C10.062682 11.013487 10.206743 11.032695 10.302784 11.128736C10.302784 11.128736 21.568378 22.173435 21.635607 22.250269C21.702835 22.327101 21.654816 22.423141 21.606794 22.451954L21.251444 22.634432L21.241838 22.634432ZM22.365517 42.7742C22.096603 42.908661 21.779669 42.716576 21.779669 42.409248L21.779669 24.22871C21.779669 24.075045 21.866104 23.930983 22.000563 23.863754L22.634432 23.54682C22.759285 23.489195 22.903347 23.508404 22.999388 23.604445L35.407867 35.782425C35.561531 35.936092 35.523117 36.195404 35.331036 36.301048L22.365517 42.783806L22.365517 42.7742Z"/>
</svg>
