<?xml version="1.0" encoding="utf-8" ?>
<svg xmlns="http://www.w3.org/2000/svg" xmlns:xlink="http://www.w3.org/1999/xlink" width="32" height="47">
	<path fill="#EDEFEA" transform="translate(0.0415039 0)" d="M30.769245 27.140728C30.802481 17.690683 24.27169 10.359183 19.951195 5.5048804C18.107893 3.4363797 16.514814 1.6514641 16.056074 0.40869564C15.964326 0.16681455 15.730785 0 15.472223 0L15.472223 0C15.21366 0 14.980121 0.15847382 14.888372 0.40869564C14.421291 1.6598048 12.819872 3.4530613 10.959889 5.5382433C6.6060295 10.417569 0.033536378 17.790771 8.6552784e-05 27.240816C-0.04153017 40.794498 14.938416 46.89991 15.08855 46.958298C15.155275 46.983318 15.222001 46.991661 15.288727 47C15.297068 47 15.305408 47 15.313749 47L15.313749 47C15.397157 47 15.472223 46.983318 15.54729 46.958298C15.54729 46.958298 15.54729 46.958298 15.555631 46.958298C15.555631 46.958298 15.555631 46.958298 15.555631 46.958298C15.864238 46.833187 30.710733 40.627686 30.760777 27.149069L30.769245 27.140728ZM1.2596233 27.240816C1.2929863 18.266193 7.4234209 11.385093 11.902391 6.3723159C13.428745 4.6624665 14.704876 3.2278616 15.480564 1.993434C16.247911 3.2195208 17.515701 4.6457853 19.025373 6.338953C23.470982 11.326708 29.551371 18.157764 29.526426 27.132387C29.492987 37.141258 20.643475 42.921383 16.823421 44.948181C16.431406 45.1567 15.955985 44.873116 15.964326 44.422714L16.039392 21.277197C16.039392 20.935226 15.764149 20.651642 15.413838 20.651642L15.413838 20.651642C15.071868 20.651642 14.788283 20.926886 14.788283 21.277197L14.713217 44.447739C14.713217 44.889797 14.246137 45.173382 13.854122 44.964863C10.059091 42.971428 1.2346011 37.25803 1.267964 27.232475L1.2596233 27.240816Z"/>
</svg>
