<?xml version="1.0" encoding="utf-8" ?>
<svg xmlns="http://www.w3.org/2000/svg" xmlns:xlink="http://www.w3.org/1999/xlink" width="1340" height="219">
	<path fill="#EDEFEA" transform="translate(0 0.0615234)" d="M737.13959 14.629547C720.49426 4.9354844 702.2298 0.057046901 682.33917 0.0006008757C662.44855 -0.061598931 644.20502 4.7051721 627.60156 14.301526C610.99811 23.897881 597.84937 36.962879 588.15533 53.510483C578.46124 70.05809 573.58282 88.176003 573.52637 107.85725C573.46417 127.74788 578.23096 146.04726 587.82727 162.7484C597.42365 179.45653 610.48865 192.65413 627.03625 202.34819C643.58386 212.04225 661.7995 216.9207 681.68311 216.97714C701.57373 217.03934 719.86615 212.27257 736.57428 202.6832C753.27539 193.09381 766.52185 179.97299 776.32062 163.32767C786.11237 146.68236 791.03967 128.41788 791.10309 108.52725C791.16528 88.839027 786.34271 70.693192 776.65564 54.089756C766.96155 37.486317 753.79187 24.337568 737.14655 14.643505L737.13959 14.629547ZM731.94708 138.02121C726.69177 146.94757 719.64282 154.01048 710.78625 159.20299C701.92969 164.40247 692.3822 166.98476 682.13678 166.95021C671.68896 166.91496 662.05072 164.27684 653.22906 159.0285C644.40039 153.78017 637.44916 146.67538 632.34741 137.72112C627.25262 128.76685 624.71918 119.0658 624.75372 108.61798C624.78894 98.177155 627.37823 88.434235 632.52887 79.410172C637.6795 70.386108 644.67957 63.225483 653.53613 57.928295C662.3927 52.631111 672.04492 49.999962 682.49274 50.02766C692.7381 50.062775 702.27167 52.798611 711.09332 58.24934C719.91498 63.700069 726.92206 70.909546 732.12158 79.863815C737.31409 88.818092 739.89636 98.519127 739.86865 108.96694C739.83356 119.41476 737.19543 129.10184 731.94708 138.02121L731.94708 138.02121ZM145.03406 133.7709C143.14272 127.83861 140.54646 122.40882 137.25229 117.47455C133.95114 112.54726 130.09166 108.56215 125.68781 105.5332C129.7148 102.53215 132.98802 98.92392 135.51448 94.715485C138.03395 90.50705 139.85551 86.096214 140.97917 81.476006C142.09584 76.862778 142.66812 72.137878 142.68208 67.315277C142.71001 57.872463 140.6302 48.680901 136.43573 39.71965C132.24126 30.77236 125.93906 23.165068 117.52219 16.911734C109.10532 10.658401 98.971565 6.81288 87.120941 5.3681927C83.903542 4.9564219 80.085938 4.6981926 75.668121 4.5795469C72.366982 4.4957967 56.279999 4.4888177 51.024689 4.4678802L51.024689 4.3562136C51.024689 4.3562136 0.63510418 4.202672 0.63510418 4.202672L0 212.13298L80.155731 212.37775C93.813957 212.41913 105.77625 209.74611 116.0426 204.35121C126.30198 198.95631 134.16052 191.64912 139.61125 182.42267C145.06198 173.20319 147.80479 163.16017 147.84003 152.31454C147.86063 145.88673 146.91844 139.71017 145.03406 133.7709ZM51.129375 52.62413L75.521561 52.652046C79.541565 52.666004 83.205627 54.180485 86.506767 57.202465C89.814896 60.224442 91.461983 64.049026 91.448112 68.669235C91.434059 73.296425 89.766045 77.058189 86.436981 79.954544C83.114899 82.85788 79.443855 84.302567 75.423851 84.288712L51.199165 84.288712C51.199165 84.288712 51.129375 52.62413 51.129375 52.62413L51.129375 52.62413ZM94.190834 157.1232C92.571663 159.42632 90.561668 161.17809 88.146873 162.37851C85.732086 163.57892 83.114899 164.17215 80.309273 164.16524L51.380627 164.07445L51.436459 145.53079L51.338749 145.53079C51.338749 145.53079 51.310833 132.50768 51.310833 132.50768L80.406982 132.52164C83.219582 132.52861 85.829788 133.14278 88.237602 134.35715C90.645416 135.57153 92.641457 137.38611 94.246666 139.8009C95.844894 142.2157 96.640518 145.13298 96.633591 148.54579C96.626564 151.96559 95.809998 154.82704 94.197815 157.13017L94.190834 157.1232ZM169.08427 4.71913L220.31136 4.8726721L219.67625 212.80298L168.44917 212.64944L169.08427 4.71913L169.08427 4.71913ZM401.84647 15.369339C385.20114 5.6752763 366.93668 0.79683858 347.04605 0.74039257C327.15543 0.67819273 308.91187 5.4449635 292.30844 15.041318C275.70499 24.637672 262.55624 37.702671 252.86218 54.250275C243.16812 70.797882 238.28969 88.915794 238.23325 108.59705C238.17104 128.48767 242.93781 146.78705 252.53416 163.48819C262.13052 180.19632 275.19553 193.39392 291.74313 203.08798C308.29074 212.78204 326.50635 217.66049 346.39001 217.71693C366.28064 217.77913 384.57303 213.01236 401.28116 203.42299C417.9823 193.8336 431.22876 180.71277 441.0275 164.06746C450.81927 147.42215 455.74655 129.15767 455.80997 109.26704C455.87219 89.578819 451.04959 71.432983 441.36249 54.829548C431.66843 38.226109 418.49875 25.07736 401.85342 15.383297L401.84647 15.369339ZM396.64697 138.75403C391.39166 147.68037 384.34271 154.7433 375.48615 159.93579C366.62958 165.13527 357.08209 167.71758 346.83667 167.68301C336.38885 167.64778 326.75061 165.00964 317.92896 159.76132C309.10031 154.51299 302.14905 147.40819 297.0473 138.45392C291.95251 129.49965 289.41907 119.79861 289.45361 109.3508C289.48886 98.909966 292.07812 89.167046 297.22876 80.142982C302.37936 71.118919 309.37949 63.958298 318.23605 58.66111C327.09259 53.363922 336.74478 50.732777 347.1926 50.760471C357.43802 50.795589 366.97156 53.531422 375.79324 58.982151C384.6149 64.432877 391.62198 71.642357 396.82147 80.596634C402.01395 89.550903 404.59625 99.251945 404.56854 109.69975C404.53345 120.14757 401.89532 129.83466 396.64697 138.75403L396.64697 138.75403ZM524.10052 164.00465L572.81512 164.16518L572.66156 213.88475L472.71991 213.56372L473.35501 5.6334009L524.58209 5.786943L524.10052 163.99767L524.10052 164.00465ZM911.01154 106.3009L962.23865 106.45444L961.9176 211.92361L910.69049 211.77007C890.39508 211.70726 872.08179 207.03122 855.73657 197.74194C839.3844 188.45267 826.61951 175.85527 817.42792 159.95674C808.22937 144.0582 803.66498 126.5684 803.72717 107.48038C803.77667 90.40934 807.48956 74.643402 814.87354 60.203506C822.25055 45.763611 832.2796 33.787361 844.96771 24.281734C857.65582 14.783089 871.83752 8.6484013 887.5127 5.8776717C891.13489 5.089026 895.99939 4.544651 902.13403 4.2654843C908.26178 3.9793386 926.91705 3.8397553 940.77771 3.8886094L945.30023 3.9025676L945.14667 53.62215L931.96301 53.62215C918.29779 53.587254 908.65259 53.810589 903.03436 54.292152C897.40918 54.780693 892.8797 55.722881 889.46686 57.111736C883.02509 59.505589 877.19049 63.253403 871.95612 68.362152C866.71478 73.470901 862.58313 79.479965 859.54718 86.403297C856.51123 93.32663 854.98279 100.50121 854.96185 107.93403C854.93396 117.37684 857.26501 126.22643 861.96198 134.4758C866.65198 142.73215 873.21936 149.3833 881.63623 154.42226C890.06012 159.46819 899.59363 162.00861 910.24384 162.0435L910.84406 162.0435C910.84406 162.0435 911.01154 106.29392 911.01154 106.29392L911.01154 106.3009ZM985.15125 2.8556926L1036.3783 3.0092344L1035.7433 210.93954L984.51617 210.78601L985.15125 2.8556926ZM1262.8104 17.016422C1240.6794 27.296734 1223.3502 43.111526 1210.8296 64.474754C1198.309 85.831009 1191.9998 112.58913 1191.9021 144.7282L1191.8533 159.85902L1160.0004 160.29173L1159.4001 160.29173C1148.7499 160.25684 1139.2163 157.71642 1130.7925 152.67049C1122.3687 147.62454 1115.8082 140.9734 1111.1183 132.72403C1106.4213 124.47465 1104.0902 115.63205 1104.1182 106.18226C1104.139 98.749443 1105.6675 91.567879 1108.7035 84.651527C1111.7394 77.728195 1115.8711 71.712151 1121.1124 66.610382C1126.3468 61.501629 1132.1884 57.753819 1138.6232 55.359962C1142.043 53.96413 1146.5654 53.021942 1152.1907 52.540379C1157.8158 52.058819 1154.9684 51.856422 1168.6335 51.898296L1173.156 51.912254L1173.3096 2.192672L1168.7871 2.1787136C1154.9265 2.1368387 1157.418 2.2275677 1151.2903 2.5137136C1145.1626 2.7998593 1140.2911 3.3372552 1136.6689 4.1259012C1120.9938 6.8966303 1106.8121 13.031318 1094.1239 22.529964C1081.4358 32.035587 1071.4067 44.00486 1064.0298 58.451733C1056.6459 72.898613 1052.9399 88.65757 1052.8835 105.72861C1052.8282 124.81663 1057.3926 142.30643 1066.5841 158.20496C1075.7758 174.1035 1088.5406 186.7009 1104.8928 195.99017C1121.238 205.28642 1139.5514 209.95549 1159.8468 210.0183L1208.3938 209.9136L1208.3938 209.27153C1208.3938 209.27153 1242.9337 209.37622 1242.9337 209.37622L1243.0245 179.24017L1288.4797 179.29601L1288.5496 209.51579L1339.3649 209.66934L1340 1.7378355C1310.6665 1.648297 1284.9343 6.7430887 1262.8104 17.023401L1262.8104 17.016422ZM1288.3821 129.56247L1243.7782 129.50664C1245.4323 112.43559 1249.8989 98.135277 1257.1713 86.60569C1264.4365 75.076111 1274.9053 66.722046 1288.5914 61.536526L1288.3821 129.56247Z"/>
</svg>
