<?xml version="1.0" encoding="utf-8" ?>
<svg xmlns="http://www.w3.org/2000/svg" xmlns:xlink="http://www.w3.org/1999/xlink" width="130" height="20">
	<path fill="#1B1A21" transform="translate(0 0.00537109)" d="M71.189949 1.322944C69.582413 0.44631389 67.818504 0.0051587285 65.897552 5.433695e-05C63.976593 -0.0055703665 62.214706 0.4254868 60.611214 1.2932813C59.007721 2.1610758 57.737869 3.3425384 56.801655 4.8389316C55.86544 6.3353248 55.394302 7.973721 55.388851 9.7534885C55.382843 11.55219 55.843197 13.206995 56.769974 14.717273C57.696751 16.228182 58.958519 17.421637 60.556618 18.298265C62.154716 19.174896 63.91391 19.616051 65.83419 19.621157C67.75515 19.62678 69.521751 19.195723 71.135353 18.32856C72.748283 17.461397 74.027573 16.274885 74.9739 14.769656C75.919548 13.264427 76.395401 11.612778 76.401527 9.8140764C76.407539 8.0336771 75.941788 6.3927569 75.006248 4.891315C74.070038 3.3898728 72.798164 2.2008364 71.190628 1.3242064L71.189949 1.322944ZM70.688484 12.481203C70.180946 13.288409 69.500183 13.927107 68.644852 14.396662C67.78952 14.866849 66.867462 15.100365 65.878006 15.09724C64.868996 15.094053 63.938175 14.855489 63.086212 14.380884C62.233578 13.90628 61.562256 13.263796 61.069546 12.454064C60.577511 11.644334 60.332844 10.767073 60.336178 9.8222809C60.339584 8.8781204 60.589645 7.9970722 61.08707 7.1810303C61.584499 6.3649879 62.26054 5.7174554 63.115871 5.2384329C63.971203 4.7594104 64.903374 4.5214767 65.912376 4.5239811C66.90184 4.5271568 67.822548 4.7745571 68.674507 5.2674642C69.526474 5.7603717 70.203186 6.412322 70.70533 7.2220531C71.206802 8.0317841 71.456192 8.9090452 71.453514 9.853837C71.450119 10.798629 71.195343 11.674627 70.688484 12.481203L70.688484 12.481203ZM14.006802 12.096849C13.824142 11.560394 13.573407 11.069381 13.25527 10.623177C12.936459 10.177603 12.563725 9.8172321 12.138419 9.5433245C12.527328 9.2719412 12.843444 8.9456511 13.087439 8.5650835C13.33076 8.184516 13.506679 7.785646 13.615196 7.3678427C13.72304 6.9506702 13.778309 6.5233998 13.779656 6.0872936C13.782353 5.2333837 13.581495 4.4021945 13.17641 3.5918322C12.771323 2.7827322 12.162683 2.0948079 11.349816 1.5293213C10.536948 0.96383494 9.5582724 0.61608601 8.4137869 0.48544353C8.1030636 0.44820726 7.734375 0.42485568 7.3077207 0.4141266C6.9889092 0.40655312 5.4352942 0.405922 4.9277573 0.40402862L4.9277573 0.39393064C4.9277573 0.39393064 0.061335783 0.38004595 0.061335783 0.38004595L0 19.183102L7.7411151 19.205235C9.0601711 19.208977 10.215441 18.967257 11.206924 18.479399C12.197733 17.991541 12.956679 17.330753 13.483088 16.496408C14.009498 15.662695 14.274387 14.754509 14.27779 13.773744C14.279779 13.192479 14.188787 12.633935 14.006802 12.096849ZM4.9378676 4.758779L7.2935662 4.7613034C7.6818013 4.7625656 8.0356617 4.8995194 8.3544731 5.1727958C8.6739588 5.4460721 8.8330269 5.7919278 8.831687 6.2097316C8.8303308 6.6281662 8.66924 6.9683414 8.3477325 7.2302575C8.0268993 7.492805 7.6723652 7.6234474 7.2841301 7.6221943L4.9446077 7.6221943C4.9446077 7.6221943 4.9378676 4.758779 4.9378676 4.758779L4.9378676 4.758779ZM9.0965691 14.208588C8.940196 14.416858 8.7460785 14.57527 8.5128679 14.683824C8.2796564 14.792377 8.0268993 14.846022 7.7559438 14.845396L4.9621325 14.837186L4.9675245 13.160292L4.9580884 13.160292C4.9580884 13.160292 4.9553924 11.982615 4.9553924 11.982615L7.7653799 11.983878C8.0370102 11.984509 8.289093 12.040048 8.5216303 12.149863C8.7541666 12.259679 8.9469366 12.423771 9.1019611 12.642139C9.2563114 12.860508 9.3331499 13.124318 9.3324795 13.432937C9.3318014 13.742188 9.2529411 14.000948 9.0972424 14.209219L9.0965691 14.208588ZM16.329473 0.42674905L21.276777 0.44063377L21.215441 19.243689L16.268137 19.229803L16.329473 0.42674905L16.329473 0.42674905ZM38.808701 1.3898431C37.201164 0.51321292 35.437256 0.072057791 33.5163 0.066953398C31.595343 0.061328698 29.833456 0.49238586 28.229963 1.3601804C26.626471 2.2279749 25.356617 3.4094374 24.420404 4.9058309C23.484192 6.4022241 23.013052 8.0406199 23.007601 9.8203878C23.001593 11.619089 23.461948 13.273894 24.388725 14.784172C25.315502 16.29508 26.577267 17.488535 28.175367 18.365166C29.773468 19.241795 31.53266 19.682951 33.452942 19.688055C35.373898 19.69368 37.140503 19.262623 38.754105 18.395458C40.367035 17.528296 41.646324 16.341784 42.592648 14.836555C43.538296 13.331326 44.014153 11.679677 44.020279 9.8809757C44.026287 8.1005764 43.560539 6.4596562 42.625 4.9582138C41.688786 3.4567719 40.416912 2.2677355 38.809376 1.3911054L38.808701 1.3898431ZM38.306557 12.547471C37.799019 13.354677 37.118259 13.993375 36.262928 14.46293C35.407597 14.933117 34.485538 15.166633 33.496078 15.163508C32.487072 15.160321 31.55625 14.921757 30.704288 14.447152C29.851654 13.972548 29.18033 13.330064 28.687622 12.520332C28.195589 11.710602 27.950918 10.833341 27.954254 9.8885489C27.957659 8.9443884 28.20772 8.0633402 28.705147 7.2472978C29.202574 6.4312558 29.878614 5.7837234 30.733946 5.3047009C31.589277 4.8256779 32.521446 4.5877447 33.530453 4.5902491C34.519913 4.5934248 35.440624 4.8408251 36.292587 5.3337321C37.144547 5.8266397 37.821262 6.47859 38.323406 7.288321C38.824879 8.098052 39.074265 8.9753132 39.07159 9.920105C39.068199 10.864897 38.813419 11.740895 38.306557 12.547471L38.306557 12.547471ZM50.615501 14.830874L55.32016 14.84539L55.305332 19.341513L45.65337 19.312481L45.714706 0.50942618L50.66201 0.5233109L50.615501 14.830244L50.615501 14.830874ZM87.981804 9.6127481L92.929108 9.6266327L92.898102 19.164167L87.950798 19.150282C85.990746 19.144602 84.222122 18.72175 82.64357 17.881725C81.064339 17.0417 79.831558 15.902522 78.943871 14.464824C78.055511 13.027124 77.614708 11.44553 77.620712 9.719408C77.625488 8.1756802 77.98407 6.7499728 78.697182 5.4441791C79.409622 4.1383848 80.378189 3.0553775 81.603554 2.1957874C82.828918 1.3368288 84.198532 0.78207147 85.712379 0.53151554C86.062195 0.46019858 86.531982 0.41097099 87.124451 0.38572603C87.71624 0.35984999 89.517891 0.34722751 90.856499 0.35164538L91.293259 0.35290763L91.278435 4.8490295L90.005211 4.8490295C88.685478 4.8458738 87.753983 4.8660698 87.211395 4.9096174C86.668137 4.9537959 86.230698 5.0389977 85.9011 5.1645913C85.278984 5.3810663 84.7155 5.7199798 84.209991 6.181962C83.703796 6.6439443 83.304779 7.1873412 83.011581 7.8134155C82.718384 8.4394894 82.57077 9.0882845 82.568748 9.7604303C82.566055 10.614341 82.791176 11.414605 83.244789 12.160592C83.697731 12.907211 84.331985 13.508672 85.144852 13.964343C85.958397 14.420645 86.879105 14.650373 87.907661 14.653529L87.965622 14.653529C87.965622 14.653529 87.981804 9.6121168 87.981804 9.6121168L87.981804 9.6127481ZM95.141914 0.25823915L100.08922 0.27212387L100.02788 19.075178L95.080574 19.061295L95.141914 0.25823915ZM121.95711 1.5387882C119.81979 2.4684327 118.1462 3.8985581 116.93701 5.8304262C115.72782 7.7616634 115.11851 10.18139 115.10907 13.087712L115.10435 14.455988L112.02812 14.495117L111.97016 14.495117C110.9416 14.491961 110.0209 14.262233 109.20735 13.805931C108.39381 13.349628 107.76023 12.748168 107.30729 12.00218C106.85368 11.256193 106.62856 10.45656 106.63125 9.6020184C106.63327 8.9298725 106.78088 8.280447 107.07408 7.6550035C107.36728 7.0289292 107.7663 6.484901 108.27249 6.02355C108.778 5.5615678 109.34216 5.2226548 109.9636 5.0061793C110.29387 4.8799548 110.73064 4.7947531 111.2739 4.7512054C111.81715 4.7076578 111.54216 4.6893554 112.86189 4.6931424L113.29865 4.6944046L113.31348 0.19828244L112.87672 0.1970202C111.53812 0.19323346 111.77874 0.20143805 111.18695 0.22731411C110.59516 0.25319016 110.12469 0.30178666 109.77488 0.37310359C108.26103 0.62365949 106.89142 1.1784168 105.66605 2.0373757C104.44069 2.8969655 103.47212 3.9793417 102.75968 5.2857671C102.04657 6.5921922 101.68867 8.0172682 101.68322 9.5609961C101.67788 11.287118 102.11869 12.868712 103.00637 14.306412C103.89406 15.74411 105.12684 16.883287 106.70607 17.723312C108.28462 18.563969 110.05325 18.986191 112.0133 18.991871L116.70177 18.982403L116.70177 18.924341C116.70177 18.924341 120.0375 18.933807 120.0375 18.933807L120.04626 16.208616L124.43615 16.213665L124.44289 18.94643L129.35043 18.960314L129.41176 0.15715177C126.57886 0.14905483 124.09375 0.60977483 121.95711 1.5394193L121.95711 1.5387882ZM124.42671 11.716282L120.11906 11.711233C120.2788 10.167505 120.71017 8.8743334 121.4125 7.831718C122.11415 6.7891026 123.12518 6.033648 124.44694 5.5647235L124.42671 11.716282Z"/>
</svg>
