<?xml version="1.0" encoding="utf-8" ?>
<svg xmlns="http://www.w3.org/2000/svg" xmlns:xlink="http://www.w3.org/1999/xlink" width="403" height="64">
	<path fill="#1B1A21" transform="translate(0 0.0175781)" d="M221.69199 4.1660948C216.68596 1.405491 211.19299 0.016245399 205.21095 0.00017111297C199.22893 -0.017541692 193.74225 1.3399043 188.74883 4.0726838C183.7554 6.8054628 179.80096 10.526017 176.88551 15.238323C173.97006 19.950628 172.50288 25.110115 172.48592 30.714798C172.46721 36.379105 173.9008 41.590263 176.78687 46.346294C179.67293 51.104313 183.60219 54.862629 188.57881 57.623234C193.55544 60.383835 199.03372 61.773083 205.01366 61.789158C210.99568 61.80687 216.49706 60.449425 221.52196 57.718632C226.54477 54.987839 230.52859 51.251385 233.47552 46.511253C236.42036 41.771126 237.90224 36.569901 237.92131 30.905596C237.94002 25.298925 236.48964 20.131489 233.57628 15.403283C230.66083 10.675078 226.70009 6.9306741 221.69408 4.1700697L221.69199 4.1660948ZM220.13036 39.304668C218.54984 41.846649 216.42989 43.857975 213.76631 45.336658C211.10274 46.817326 208.23135 47.552692 205.15009 47.542854C202.00795 47.532818 199.10928 46.781551 196.45621 45.286968C193.80103 43.792389 191.71046 41.769138 190.17612 39.219208C188.64388 36.669273 187.88196 33.906685 187.89235 30.931433C187.90295 27.958168 188.68166 25.183653 190.2307 22.613846C191.77972 20.044039 193.88498 18.004889 196.54855 16.496395C199.21214 14.987901 202.11499 14.238623 205.25714 14.24651C208.33841 14.25651 211.20558 15.035601 213.85867 16.587818C216.51175 18.140038 218.61911 20.1931 220.18283 22.743032C221.74445 25.292963 222.52107 28.055555 222.51274 31.030806C222.50218 34.006058 221.70877 36.764675 220.13036 39.304668L220.13036 39.304668ZM43.618454 38.094296C43.049637 36.404942 42.268822 34.858685 41.278114 33.453541C40.285309 32.050381 39.124584 30.915533 37.80014 30.052967C39.011238 29.198353 39.995651 28.170828 40.755474 26.97238C41.513199 25.773932 42.061028 24.517847 42.39896 23.202139C42.734791 21.888416 42.906906 20.542896 42.911102 19.16955C42.919498 16.480495 42.29401 13.862989 41.032536 11.31107C39.771061 8.7631264 37.875702 6.5967779 35.34436 4.8159995C32.813015 3.0352211 29.765327 1.940122 26.201298 1.5287145C25.233677 1.4114535 24.085546 1.3379169 22.756907 1.3041297C21.764099 1.28028 16.926001 1.2782925 15.345485 1.2723302L15.345485 1.2405305C15.345485 1.2405305 0.19100522 1.1968061 0.19100522 1.1968061L0 60.409676L24.106537 60.479374C28.214197 60.491161 31.811813 59.729958 34.89938 58.193638C37.984848 56.657318 40.348274 54.576431 41.987564 51.94899C43.62685 49.323532 44.45174 46.463554 44.462337 43.375019C44.468533 41.544552 44.185173 39.785637 43.618454 38.094296ZM15.376968 14.985913L22.712828 14.993863C23.921827 14.997838 25.023781 15.42912 26.016588 16.289698C27.011496 17.150274 27.506849 18.239412 27.502678 19.55512C27.498453 20.872816 26.996801 21.944067 25.9956 22.768869C24.996494 23.595659 23.892443 24.007067 22.683443 24.00312L15.397959 24.00312C15.397959 24.00312 15.376968 14.985913 15.376968 14.985913L15.376968 14.985913ZM28.327541 44.744389C27.840584 45.400257 27.236084 45.899113 26.509844 46.240959C25.783604 46.582806 24.996494 46.75174 24.152714 46.749771L15.452531 46.723915L15.469323 41.443192L15.439938 41.443192C15.439938 41.443192 15.431541 37.734562 15.431541 37.734562L24.182098 37.738537C25.027979 37.740524 25.81299 37.915421 26.53713 38.261242C27.261271 38.607063 27.861572 39.123806 28.344334 39.811474C28.824995 40.499142 29.064276 41.329906 29.062191 42.301781C29.060078 43.275646 28.814501 44.090511 28.329641 44.746376L28.327541 44.744389ZM50.851463 1.3438792L66.25782 1.3876038L66.066811 60.600471L50.660458 60.556747L50.851463 1.3438792L50.851463 1.3438792ZM120.85382 4.3767672C115.84781 1.6161635 110.35484 0.22691783 104.3728 0.21084355C98.39077 0.19313075 92.904091 1.5505767 87.910675 4.2833562C82.917252 7.0161352 78.962814 10.736691 76.047356 15.448996C73.131905 20.161301 71.664734 25.320787 71.647758 30.92547C71.629051 36.589775 73.062637 41.800938 75.948708 46.556969C78.834778 51.314983 82.764023 55.073299 87.740654 57.833904C92.717285 60.594509 98.195564 61.983753 104.1755 61.999828C110.15753 62.01754 115.6589 60.660095 120.68381 57.929302C125.70661 55.198513 129.69044 51.462059 132.63737 46.721928C135.58221 41.981796 137.06407 36.780575 137.08315 31.116268C137.10185 25.509598 135.65147 20.342161 132.73813 15.613955C129.82268 10.885751 125.86194 7.1413465 120.85592 4.3807425L120.85382 4.3767672ZM119.2901 39.513351C117.70959 42.055336 115.58964 44.066658 112.92606 45.545341C110.26248 47.026012 107.39111 47.761379 104.30983 47.751541C101.16769 47.741501 98.269028 46.990238 95.615952 45.495655C92.960762 44.001072 90.870201 41.977821 89.335861 39.427891C87.803627 36.87796 87.041702 34.115368 87.052094 31.140118C87.062691 28.166853 87.841408 25.392338 89.390434 22.822531C90.939468 20.252724 93.044724 18.213573 95.708305 16.70508C98.37188 15.196586 101.27474 14.447308 104.41688 14.455194C107.49815 14.465195 110.36533 15.244286 113.01841 16.796503C115.67149 18.348722 117.77885 20.401785 119.34258 22.951717C120.9042 25.501648 121.68081 28.26424 121.67249 31.239491C121.66192 34.214741 120.86852 36.973358 119.2901 39.513351L119.2901 39.513351ZM157.62128 46.704041L172.272 46.749752L172.22583 60.908531L142.16875 60.817108L142.35976 1.6042386L157.7661 1.647963L157.62128 46.702053L157.62128 46.704041ZM273.98334 30.271589L289.38968 30.315315L289.29312 60.350048L273.88678 60.306324C267.78302 60.288437 262.27533 58.956829 257.35959 56.311497C252.44171 53.666168 248.60272 50.078773 245.83839 45.551304C243.07198 41.023834 241.69925 36.043221 241.71794 30.607473C241.73283 25.746107 242.84947 21.256399 245.07018 17.144312C247.28877 13.032225 250.30498 9.6217165 254.12088 6.9147739C257.9368 4.2098193 262.20187 2.4628282 266.91614 1.6738002C268.00549 1.4492155 269.46848 1.2941923 271.31345 1.2146933C273.15634 1.1332068 278.76685 1.0934573 282.93539 1.1073697L284.2955 1.1113446L284.24933 15.270123L280.28439 15.270123C276.17465 15.260185 273.2739 15.323784 271.58423 15.46092C269.89246 15.600043 268.53024 15.868353 267.50385 16.263861C265.5665 16.945564 263.81177 18.012838 262.23755 19.467672C260.66122 20.922504 259.41867 22.63372 258.50562 24.605297C257.59256 26.576872 257.1329 28.619997 257.12659 30.73666C257.11819 33.425713 257.81924 35.945835 259.23184 38.295029C260.64233 40.646214 262.61746 42.540279 265.1488 43.975235C267.68225 45.412182 270.54944 46.135624 273.75244 46.145561L273.93295 46.145561C273.93295 46.145561 273.98334 30.269602 273.98334 30.269602L273.98334 30.271589ZM296.28055 0.81322318L311.68692 0.85694766L311.49591 60.069817L296.08957 60.026093L296.28055 0.81322318ZM379.78552 4.8458118C373.12973 7.7733636 367.918 12.276984 364.15247 18.360647C360.38696 24.442324 358.4895 32.062305 358.46011 41.214634L358.4454 45.523479L348.86575 45.646702L348.68524 45.646702C345.48224 45.636765 342.61508 44.913326 340.08163 43.476379C337.54819 42.039436 335.57516 40.14537 334.16467 37.796173C332.75208 35.446976 332.05103 32.928844 332.05942 30.237803C332.0657 28.121141 332.52536 26.076029 333.43842 24.10644C334.35147 22.134865 335.59406 20.421659 337.17038 18.968815C338.7446 17.513983 340.5014 16.446709 342.43665 15.765004C343.46515 15.367509 344.82526 15.099199 346.51703 14.962064C348.2088 14.824928 347.35242 14.767291 351.46219 14.779216L352.8223 14.783191L352.86847 0.62441301L351.50836 0.62043804C347.33981 0.60851318 348.08914 0.63435036 346.24628 0.71583688C344.40338 0.79732341 342.93829 0.95035905 341.84894 1.1749438C337.13467 1.9639717 332.8696 3.710963 329.05371 6.4159174C325.23779 9.12286 322.22159 12.531381 320.00299 16.645456C317.78229 20.759531 316.66776 25.247252 316.65079 30.108618C316.63416 35.544365 318.00687 40.524979 320.77121 45.052448C323.53552 49.579918 327.37454 53.167313 332.29239 55.812641C337.20816 58.459961 342.71582 59.789581 348.81958 59.807468L363.41995 59.777657L363.41995 59.59481C363.41995 59.59481 373.80768 59.624622 373.80768 59.624622L373.83496 51.042702L387.50549 51.058601L387.52649 59.664371L402.80899 59.708096L403 0.49488804C394.17807 0.46938989 386.43921 1.9202472 379.78552 4.8477993L379.78552 4.8458118ZM387.4761 36.895847L374.06168 36.879948C374.55911 32.018581 375.90244 27.946243 378.08957 24.662933C380.27457 21.379623 383.423 19.000614 387.53906 17.52392L387.4761 36.895847Z"/>
</svg>
