<?xml version="1.0" encoding="utf-8" ?>
<svg xmlns="http://www.w3.org/2000/svg" xmlns:xlink="http://www.w3.org/1999/xlink" width="49" height="48">
	<path fill="#1b1a21" transform="translate(0.0634766 0.0634766)" d="M33.232567 17.176407C34.775921 17.746397 36.976959 18.351461 39.335838 18.351461C41.878864 18.351461 44.597275 17.641169 46.833389 15.396287C47.087692 15.141984 47.087692 14.721069 46.833389 14.466766C46.579086 14.212463 46.158169 14.212463 45.903866 14.466766C44.746349 15.624283 43.413452 16.30827 42.045479 16.667801C41.93148 16.694109 41.808712 16.667801 41.72979 16.580111C40.554737 15.361211 31.662905 6.4693785 30.444004 5.2943234C30.356314 5.2066326 30.321238 5.0926352 30.356314 4.9786372C30.715845 3.6106627 31.399832 2.2777648 32.55735 1.1202482C32.811653 0.86594522 32.811653 0.44503009 32.55735 0.19072717C32.303047 -0.06357573 31.882132 -0.06357573 31.627829 0.19072717C27.313448 4.5051074 28.672653 10.58207 29.856476 13.791548C29.935398 14.002006 29.733709 14.203694 29.523252 14.124773C26.568077 13.037409 21.175102 11.809739 16.96595 15.001679C16.588881 15.291059 16.045198 15.238444 15.703204 14.905219L2.7863705 2.2426887C2.5232987 1.9883857 2.1111526 1.9883857 1.8568497 2.2426887C1.6025468 2.5057604 1.6025468 2.9179065 1.8568497 3.1722095L14.764915 15.834741C15.106908 16.167965 15.168291 16.702877 14.887681 17.097486C11.844815 21.280331 13.054947 26.568077 14.124773 29.496944C14.203694 29.707403 14.002006 29.90909 13.791548 29.83017C10.58207 28.655115 4.5051074 27.28714 0.19072717 31.601521C-0.06357573 31.855824 -0.06357573 32.276737 0.19072717 32.53104C0.44503009 32.785343 0.86594522 32.785343 1.1202482 32.53104C2.2777648 31.373526 3.6106627 30.689537 4.9786372 30.330006C5.0926352 30.303699 5.2154016 30.330006 5.2943234 30.417696C6.4693785 31.636597 15.361211 40.528431 16.580111 41.703484C16.667801 41.791176 16.702877 41.905174 16.667801 42.019169C16.30827 43.387146 15.624283 44.720043 14.466766 45.87756C14.212463 46.131863 14.212463 46.552776 14.466766 46.807079C14.598302 46.938618 14.764915 47 14.931526 47C15.098139 47 15.264751 46.938618 15.396287 46.807079C19.710667 42.492699 18.351461 36.415737 17.176407 33.206261C17.097486 32.995804 17.299175 32.794113 17.509632 32.873035C19.052988 33.443024 21.254023 34.048088 23.612902 34.048088C25.770092 34.048088 28.050049 33.521946 30.058165 31.996128C30.444004 31.706749 30.978916 31.750595 31.320911 32.08382L44.228973 44.755119C44.360512 44.877888 44.527122 44.93927 44.693737 44.93927C44.860348 44.93927 45.035728 44.869118 45.167267 44.746349C45.42157 44.483276 45.42157 44.071133 45.167267 43.81683L32.259201 31.154299C31.917208 30.821074 31.855824 30.286161 32.136433 29.891552C35.179298 25.708708 33.96917 20.420961 32.899342 17.500862C32.820419 17.290405 33.02211 17.088717 33.232567 17.167639L33.232567 17.176407ZM16.632725 39.984749C15.098139 38.450161 8.5651846 31.917208 7.0393677 30.39139C6.9166007 30.268623 6.995522 30.049397 7.1796727 30.040627C10.58207 29.891552 13.817855 31.224451 14.940296 31.750595C15.098139 31.820747 15.212137 31.943514 15.28229 32.092587C15.799664 33.206261 17.132563 36.450813 16.992256 39.85321C16.992256 40.028591 16.764261 40.116283 16.641495 39.993515L16.632725 39.984749ZM24.139046 32.697655C20.736649 32.837959 17.500862 31.51383 16.378422 30.987686C16.220579 30.917534 16.106581 30.794767 16.036428 30.645693C15.519054 29.532021 14.186156 26.287466 14.326461 22.885069C14.326461 22.709688 14.554457 22.621998 14.677224 22.744764C16.211811 24.27935 22.744764 30.812305 24.270582 32.338123C24.393349 32.460888 24.314426 32.680115 24.130276 32.688885L24.139046 32.697655ZM26.559307 32.320583C26.34008 32.381966 26.103317 32.320583 25.936705 32.153973L14.870143 21.08741C14.703531 20.920799 14.642147 20.684034 14.703531 20.464808C14.966603 19.552824 15.387518 18.667149 15.992583 17.842857C16.167965 17.606092 16.527496 17.588554 16.737955 17.790241L29.35664 30.172163C29.567097 30.38262 29.558329 30.742151 29.321564 30.917534C28.453426 31.583982 27.523905 32.039974 26.559307 32.311813L26.559307 32.320583ZM32.320583 26.559307C32.05751 27.471291 31.636597 28.356966 31.03153 29.181259C30.85615 29.418024 30.496618 29.435562 30.286161 29.233873L17.667475 16.851952C17.457018 16.641495 17.465786 16.281963 17.702551 16.106581C18.570688 15.440132 19.50021 14.984141 20.464808 14.703531C20.684034 14.642147 20.920799 14.703531 21.08741 14.870143L32.153973 25.936705C32.320583 26.103317 32.381966 26.34008 32.320583 26.559307L32.320583 26.559307ZM32.346889 24.270582C30.812305 22.735994 24.27935 16.203041 22.753532 14.677224C22.630766 14.554457 22.709688 14.33523 22.893839 14.326461C26.296236 14.177387 29.540791 15.510285 30.654461 16.036428C30.812305 16.106581 30.926302 16.229349 30.996454 16.378422C31.51383 17.492094 32.846729 20.736649 32.706425 24.139046C32.706425 24.314426 32.478428 24.402117 32.355659 24.27935L32.346889 24.270582ZM32.092587 15.27352C31.934746 15.203367 31.820747 15.080601 31.750595 14.931526C31.233219 13.817855 29.900322 10.573301 30.040627 7.1709037C30.040627 6.995522 30.268623 6.9078317 30.39139 7.0305986C31.925976 8.5651846 38.458931 15.098139 39.984749 16.632725C40.107513 16.755493 40.028591 16.974718 39.844444 16.983488C36.442043 17.132563 33.197491 15.790895 32.08382 15.27352L32.092587 15.27352Z"/>
</svg>
